<?xml version="1.0" encoding="UTF-8"?>
<svg version="1.1" xmlns="http://www.w3.org/2000/svg" width="744" height="744">
<path d="M0 0 C0.69298036 -0.00226556 1.38596072 -0.00453111 2.09994048 -0.00686532 C4.40963634 -0.01316841 6.71927296 -0.01237834 9.02897644 -0.0115509 C10.69011511 -0.01454471 12.35125308 -0.01794775 14.01239014 -0.02172852 C18.51663144 -0.0305504 23.02085374 -0.03290587 27.52510285 -0.0335443 C30.34171575 -0.03425586 33.15832383 -0.03639218 35.97493553 -0.03904152 C45.80838197 -0.04828909 55.64181486 -0.05237716 65.4752655 -0.05158997 C74.62972428 -0.0509894 83.78412408 -0.06153865 92.93856794 -0.07733363 C100.8079817 -0.09042576 108.67737623 -0.09577316 116.54680079 -0.09513456 C121.24245222 -0.09488005 125.93805124 -0.09770495 130.63369179 -0.10831261 C135.0520685 -0.11802169 139.47034298 -0.11805354 143.88872337 -0.11079597 C145.50556971 -0.10975361 147.12242251 -0.11209225 148.73925781 -0.11815643 C170.99055328 -0.19617351 170.99055328 -0.19617351 179.88517761 8.13371277 C187.54864802 16.402194 186.19376019 30.84374632 186.18595886 41.42277527 C186.19024399 42.72902863 186.19452911 44.03528198 186.19894409 45.38111877 C186.2063242 48.11558659 186.20617081 50.849925 186.20085144 53.58439636 C186.19499517 57.08706269 186.21217305 60.58921074 186.23519611 64.09179115 C186.25342456 67.45214189 186.24975075 70.8123753 186.24845886 74.17277527 C186.25766861 75.42893646 186.26687836 76.68509766 186.27636719 77.97932434 C186.267024 79.71791214 186.267024 79.71791214 186.25749207 81.49162292 C186.25812149 82.51164398 186.25875092 83.53166504 186.25939941 84.58259583 C185.88517761 87.13371277 185.88517761 87.13371277 184.59237671 88.97462463 C181.83643294 90.84574894 179.1077737 90.31612387 175.88517761 90.13371277 C175.88517761 93.43371277 175.88517761 96.73371277 175.88517761 100.13371277 C177.34890808 100.09890808 177.34890808 100.09890808 178.84220886 100.06340027 C180.75066589 100.03632996 180.75066589 100.03632996 182.69767761 100.00871277 C183.96224792 99.98550964 185.22681824 99.96230652 186.52970886 99.93840027 C189.88517761 100.13371277 189.88517761 100.13371277 192.88517761 102.13371277 C193.93494726 105.2830217 193.98649356 107.52185733 193.94767761 110.82121277 C193.93865417 111.81507996 193.92963074 112.80894714 193.92033386 113.83293152 C193.90293152 114.97181824 193.90293152 114.97181824 193.88517761 116.13371277 C194.47943542 116.15949402 195.07369324 116.18527527 195.68595886 116.21183777 C204.99587652 116.84890834 213.39472735 119.42670305 220.88517761 125.13371277 C222.12267761 125.99996277 222.12267761 125.99996277 223.38517761 126.88371277 C234.09245233 136.52026002 237.74216296 148.16857959 238.88517761 162.13371277 C239.02827612 166.24259672 239.03302159 170.34843278 239.03234863 174.45953369 C239.03602532 175.67691662 239.03970201 176.89429954 239.04349011 178.14857286 C239.05256111 181.50643311 239.05721425 184.86424473 239.05987942 188.22211254 C239.06380554 191.85215874 239.0733819 195.48219111 239.08209229 199.11222839 C239.10178859 207.86650448 239.11191274 216.62078161 239.12082008 225.3750743 C239.1252129 229.50572083 239.13057699 233.6363661 239.13580894 237.76701164 C239.15281195 251.51073089 239.16730507 265.25444938 239.17455769 278.99817753 C239.17646731 282.55889957 239.17838769 286.11962161 239.18034363 289.68034363 C239.18082737 290.56525096 239.18131111 291.4501583 239.18180951 292.36188101 C239.19010621 306.69006222 239.2154412 321.01815986 239.24792431 335.3463046 C239.28105717 350.08203015 239.29901193 364.8177133 239.30220193 379.55347627 C239.30436091 387.8168831 239.31301999 396.08016793 239.3386631 404.34353828 C239.36045515 411.38175847 239.36837886 418.41982698 239.35869632 425.45807708 C239.35417651 429.04293715 239.35590091 432.6274848 239.37545776 436.21230125 C239.55898009 471.86088944 239.55898009 471.86088944 229.88517761 486.13371277 C229.22517761 486.13371277 228.56517761 486.13371277 227.88517761 486.13371277 C227.57580261 486.96902527 227.57580261 486.96902527 227.26017761 487.82121277 C223.08945198 494.83561497 215.36900591 497.8067315 207.88517761 500.13371277 C203.17723949 500.77743878 198.56017258 500.74077705 193.81486511 500.65715027 C192.37088302 500.65077059 190.92688953 500.64666379 189.4828949 500.64454651 C185.4384248 500.63198937 181.39483081 500.587506 177.35066986 500.53775024 C172.91420674 500.48802082 168.47759481 500.46518986 164.04093933 500.43937683 C157.88222585 500.40141538 151.72360883 500.35863956 145.5650177 500.30412292 C127.09914444 500.14282165 108.63406438 500.08842367 90.16762006 500.05060256 C78.3080134 500.02549853 66.44845883 499.98368504 54.58890724 499.94017601 C45.399068 499.90677455 36.20928407 499.87884477 27.01939392 499.86436462 C19.05362987 499.85154739 11.0880593 499.82405099 3.12240648 499.77970159 C-1.00853146 499.75710427 -5.13923545 499.74072363 -9.27024078 499.74172592 C-38.2462902 499.74040866 -38.2462902 499.74040866 -52.22077942 497.47062683 C-53.10975355 497.33278652 -53.99872768 497.19494621 -54.91464043 497.05292892 C-62.24293204 495.65225149 -67.43507723 492.05553502 -73.20321751 487.47546768 C-81.904706 481.36789543 -103.32336034 485.02476018 -113.43523979 485.05854797 C-117.34321512 485.07146412 -121.25115596 485.07786578 -125.15914917 485.08268738 C-134.15896533 485.09462853 -143.15875088 485.11668279 -152.15854645 485.13891602 C-161.07870356 485.16084089 -169.9988458 485.1786512 -178.91902351 485.18965149 C-182.74301545 485.19606739 -186.56695505 485.20857276 -190.39093018 485.22135925 C-236.23770052 485.32022373 -236.23770052 485.32022373 -247.11482239 475.13371277 C-256.63248797 463.61232812 -256.59103883 448.83042006 -256.42732239 434.63371277 C-256.41857137 432.91219728 -256.4101159 431.19068027 -256.40193176 429.46916199 C-256.31531016 417.94928033 -255.84870825 406.4657185 -255.25419617 394.96250916 C-254.24118144 375.31042278 -253.86482239 355.68416985 -253.86482239 336.00871277 C-253.86482239 335.31795277 -253.86482239 334.62719276 -253.86482239 333.91550064 C-253.8754689 311.12377909 -254.45721073 288.37735669 -255.54289246 265.60975647 C-255.91032526 257.82777154 -256.22337849 250.05387113 -256.27888489 242.26261902 C-256.29362854 241.21286644 -256.29362854 241.21286644 -256.30867004 240.14190674 C-256.30867004 230.21584453 -254.31773161 219.24377928 -247.61482239 211.60246277 C-242.08823641 206.191014 -236.45367086 202.6064367 -228.92732239 200.94621277 C-226.32450854 200.34757803 -226.32450854 200.34757803 -224.11482239 199.13371277 C-222.85449816 196.86429174 -222.13257524 194.62481943 -221.31794739 192.16496277 C-220.11482239 190.13371277 -220.11482239 190.13371277 -217.66169739 189.10246277 C-215.13327373 188.62220353 -212.68275027 188.28563217 -210.11482239 188.13371277 C-210.11482239 186.15371277 -210.11482239 184.17371277 -210.11482239 182.13371277 C-211.76482239 182.13371277 -213.41482239 182.13371277 -215.11482239 182.13371277 C-216.81671423 179.16116873 -217.36934148 177.01424762 -217.38948059 173.59977722 C-217.40377861 172.26237236 -217.40377861 172.26237236 -217.41836548 170.89794922 C-217.41745407 169.940634 -217.41654266 168.98331879 -217.41560364 167.99699402 C-217.41988876 167.0029808 -217.42417389 166.00896759 -217.42858887 164.98483276 C-217.43432973 162.88090272 -217.43483422 160.77695282 -217.43049622 158.67301941 C-217.42735102 155.47532105 -217.45074742 152.27856141 -217.47615051 149.08097839 C-217.47842519 147.03215143 -217.47912622 144.98332199 -217.47810364 142.93449402 C-217.48731339 141.98729996 -217.49652313 141.0401059 -217.50601196 140.06420898 C-217.46374138 133.90654354 -216.42699294 128.8434927 -214.11482239 123.13371277 C-213.45482239 123.13371277 -212.79482239 123.13371277 -212.11482239 123.13371277 C-211.92919739 122.53558777 -211.74357239 121.93746277 -211.55232239 121.32121277 C-209.43325741 118.09654868 -206.72111663 117.10785731 -203.11482239 116.13371277 C-198.88276569 115.6970898 -194.67333651 115.71353878 -190.42170715 115.72966003 C-188.52287277 115.71936516 -188.52287277 115.71936516 -186.5856781 115.7088623 C-183.12898004 115.69098534 -179.67253658 115.69208885 -176.21580625 115.69780469 C-173.32326858 115.7009045 -170.43077925 115.69479531 -167.53824848 115.68876594 C-160.71111141 115.67474027 -153.88409954 115.67626562 -147.05696106 115.68766785 C-140.02850553 115.69914736 -133.00043166 115.68507204 -125.97202641 115.65827137 C-119.92337543 115.63607564 -113.87484392 115.62948567 -107.82615513 115.63534778 C-104.21980102 115.63870933 -100.61369152 115.63635615 -97.0073719 115.61909676 C-92.98378152 115.60067908 -88.96092816 115.61485428 -84.93733215 115.63200378 C-83.75214493 115.62233582 -82.5669577 115.61266785 -81.34585571 115.60270691 C-74.41608593 115.66448383 -70.0676755 116.56290224 -64.11482239 120.13371277 C-60.28164172 121.41143966 -58.8326572 120.56538392 -55.05232239 119.25871277 C-49.36490357 117.40966405 -44.07806467 116.40293364 -38.11482239 116.13371277 C-38.12642395 115.06250183 -38.13802551 113.99129089 -38.14997864 112.88761902 C-38.15935537 111.49048534 -38.1684557 110.09334978 -38.17732239 108.69621277 C-38.18570129 107.98916199 -38.1940802 107.28211121 -38.20271301 106.55363464 C-38.21135826 104.74677717 -38.1670225 102.93983674 -38.11482239 101.13371277 C-37.11482239 100.13371277 -37.11482239 100.13371277 -33.29841614 100.03605652 C-31.71635557 100.04273188 -30.1343108 100.05469401 -28.55232239 100.07121277 C-27.74601379 100.07572449 -26.9397052 100.08023621 -26.10896301 100.08488464 C-24.11088483 100.09670759 -22.11284456 100.11464363 -20.11482239 100.13371277 C-20.11482239 96.83371277 -20.11482239 93.53371277 -20.11482239 90.13371277 C-22.31138489 90.16465027 -22.31138489 90.16465027 -24.55232239 90.19621277 C-26.07314757 90.21763284 -27.59554201 90.20551241 -29.11482239 90.13371277 C-30.93788978 88.31064538 -30.25206445 85.44607459 -30.26008606 82.99674988 C-30.26646591 81.68125656 -30.27284576 80.36576324 -30.27941895 79.01040649 C-30.28094844 77.56062354 -30.28206196 76.1108401 -30.28279114 74.66105652 C-30.28600381 73.17949389 -30.28936789 71.69793158 -30.2928772 70.21636963 C-30.29887873 67.10165167 -30.3007163 63.98696149 -30.30012512 60.87223816 C-30.300024 56.89678348 -30.31361935 52.92150943 -30.33089733 48.94609737 C-30.34206933 45.88071897 -30.34404266 42.81538332 -30.3435154 39.74998665 C-30.34468987 38.28568976 -30.34908156 36.82139156 -30.35684776 35.35711479 C-30.44811623 16.35366301 -30.44811623 16.35366301 -25.11482239 9.63371277 C-24.59919739 8.96340027 -24.08357239 8.29308777 -23.55232239 7.60246277 C-23.07794739 7.11777527 -22.60357239 6.63308777 -22.11482239 6.13371277 C-21.45482239 6.13371277 -20.79482239 6.13371277 -20.11482239 6.13371277 C-20.11482239 5.47371277 -20.11482239 4.81371277 -20.11482239 4.13371277 C-13.32213725 1.0090776 -7.53650845 0.010215 0 0 Z " fill="#B0B0B0" transform="translate(374.1148223876953,151.8662872314453)"/>
<path d="M0 0 C1.89883438 -0.01029488 1.89883438 -0.01029488 3.83602905 -0.02079773 C7.29272712 -0.03867469 10.74917058 -0.03757118 14.20590091 -0.03185534 C17.09843858 -0.02875553 19.9909279 -0.03486472 22.88345867 -0.04089409 C29.71059574 -0.05491976 36.53760762 -0.05339441 43.36474609 -0.04199219 C50.39320163 -0.03051268 57.4212755 -0.04458799 64.44968075 -0.07138866 C70.49833173 -0.09358439 76.54686324 -0.10017436 82.59555203 -0.09431225 C86.20190613 -0.0909507 89.80801564 -0.09330389 93.41433525 -0.11056328 C97.43792563 -0.12898095 101.46077899 -0.11480575 105.484375 -0.09765625 C107.26215584 -0.1121582 107.26215584 -0.1121582 109.07585144 -0.12695312 C115.91544326 -0.06598012 120.53426771 0.61501903 126.30688477 4.40405273 C127.30688477 7.15405273 127.30688477 7.15405273 127.30688477 9.40405273 C126.8105957 9.78174805 126.31430664 10.15944336 125.80297852 10.54858398 C117.17717945 17.53760903 110.93876395 26.61156286 109.76104259 37.82032204 C109.19116202 43.89230549 109.1649048 49.93424602 109.173172 56.02890015 C109.16977366 57.88499088 109.16977366 57.88499088 109.16630667 59.7785784 C109.16109772 63.18751198 109.16031726 66.59639253 109.16150105 70.00532627 C109.16170612 73.69185317 109.15617626 77.37837237 109.15144348 81.06489563 C109.14315996 88.27723542 109.1403897 95.48956704 109.1398311 102.7019112 C109.13935494 108.56684563 109.13729522 114.43177738 109.13413048 120.29671097 C109.12533095 136.944114 109.12071012 153.59151059 109.12146095 170.23891596 C109.12150091 171.13516891 109.12154086 172.03142186 109.12158203 172.95483398 C109.12164335 174.30086429 109.12164335 174.30086429 109.12170591 175.67408712 C109.1221124 190.2182735 109.11254023 204.762434 109.09844366 219.30661289 C109.08406606 234.25931335 109.07717421 249.21200119 109.07803744 264.16470873 C109.07836888 272.5520103 109.07564479 280.93928472 109.06485939 289.32658005 C109.05573626 296.46660372 109.05359408 303.60658793 109.06036881 310.74661492 C109.0636246 314.3855775 109.06372487 318.02446443 109.05501556 321.66341972 C109.04565001 325.6173938 109.05195097 329.57125852 109.05964661 333.52523804 C109.05193126 335.2310111 109.05193126 335.2310111 109.04406005 336.97124422 C109.08499343 346.52363076 109.53144223 355.93849551 114.30688477 364.40405273 C114.30688477 365.39405273 114.30688477 366.38405273 114.30688477 367.40405273 C107.10845835 369.30215844 100.48941548 369.68451681 93.06445312 369.64697266 C91.27223831 369.64982018 91.27223831 369.64982018 89.44381714 369.65272522 C86.1891843 369.65577978 82.93472152 369.64995869 79.68010783 369.63977218 C76.25097894 369.63091731 72.82185346 369.63275066 69.39271545 369.63313293 C63.62881178 369.63219855 57.86496098 369.62355077 52.10107422 369.60986328 C45.4784451 369.59419256 38.855874 369.58886358 32.23322767 369.58959883 C25.13467513 369.59027999 18.03614436 369.58330202 10.93759847 369.57415223 C8.91605433 369.57204166 6.89451381 369.57131388 4.87296867 369.57091331 C-45.86822121 369.5416519 -45.86822121 369.5416519 -56.69311523 359.40405273 C-66.21078081 347.88266809 -66.16933168 333.10076002 -66.00561523 318.90405273 C-65.99686421 317.18253724 -65.98840875 315.46102023 -65.98022461 313.73950195 C-65.89360301 302.21962029 -65.42700109 290.73605847 -64.83248901 279.23284912 C-63.81947429 259.58076275 -63.44311523 239.95450981 -63.44311523 220.27905273 C-63.44311523 219.58829273 -63.44311523 218.89753273 -63.44311523 218.18584061 C-63.45376174 195.39411906 -64.03550358 172.64769665 -65.1211853 149.88009644 C-65.48861811 142.09811151 -65.80167133 134.3242111 -65.85717773 126.53295898 C-65.86700684 125.83312393 -65.87683594 125.13328888 -65.88696289 124.4122467 C-65.88696289 114.4861845 -63.89602446 103.51411925 -57.19311523 95.87280273 C-51.66652926 90.46135397 -46.03196371 86.87677666 -38.50561523 85.21655273 C-35.90280138 84.61791799 -35.90280138 84.61791799 -33.69311523 83.40405273 C-32.43279101 81.1346317 -31.71086809 78.89515939 -30.89624023 76.43530273 C-29.69311523 74.40405273 -29.69311523 74.40405273 -27.23999023 73.37280273 C-24.71156658 72.89254349 -22.26104312 72.55597213 -19.69311523 72.40405273 C-19.69311523 70.42405273 -19.69311523 68.44405273 -19.69311523 66.40405273 C-21.34311523 66.40405273 -22.99311523 66.40405273 -24.69311523 66.40405273 C-26.39500708 63.4315087 -26.94763433 61.28458758 -26.96777344 57.87011719 C-26.98207146 56.53271233 -26.98207146 56.53271233 -26.99665833 55.16828918 C-26.99574692 54.21097397 -26.99483551 53.25365875 -26.99389648 52.26733398 C-26.99818161 51.27332077 -27.00246674 50.27930756 -27.00688171 49.25517273 C-27.01262258 47.15124268 -27.01312707 45.04729278 -27.00878906 42.94335938 C-27.00564386 39.74566102 -27.02904027 36.54890137 -27.05444336 33.35131836 C-27.05671804 31.30249139 -27.05741906 29.25366196 -27.05639648 27.20483398 C-27.06560623 26.25763992 -27.07481598 25.31044586 -27.08430481 24.33454895 C-27.04203423 18.17688351 -26.00528579 13.11383267 -23.69311523 7.40405273 C-23.03311523 7.40405273 -22.37311523 7.40405273 -21.69311523 7.40405273 C-21.41467773 6.50686523 -21.41467773 6.50686523 -21.13061523 5.59155273 C-16.65831561 -1.21412061 -7.14042983 -0.02707496 0 0 Z " fill="#ABABAB" transform="translate(183.693115234375,267.595947265625)"/>
<path d="M0 0 C0.69298036 -0.00226556 1.38596072 -0.00453111 2.09994048 -0.00686532 C4.40963634 -0.01316841 6.71927296 -0.01237834 9.02897644 -0.0115509 C10.69011511 -0.01454471 12.35125308 -0.01794775 14.01239014 -0.02172852 C18.51663144 -0.0305504 23.02085374 -0.03290587 27.52510285 -0.0335443 C30.34171575 -0.03425586 33.15832383 -0.03639218 35.97493553 -0.03904152 C45.80838197 -0.04828909 55.64181486 -0.05237716 65.4752655 -0.05158997 C74.62972428 -0.0509894 83.78412408 -0.06153865 92.93856794 -0.07733363 C100.8079817 -0.09042576 108.67737623 -0.09577316 116.54680079 -0.09513456 C121.24245222 -0.09488005 125.93805124 -0.09770495 130.63369179 -0.10831261 C135.0520685 -0.11802169 139.47034298 -0.11805354 143.88872337 -0.11079597 C145.50556971 -0.10975361 147.12242251 -0.11209225 148.73925781 -0.11815643 C170.99055328 -0.19617351 170.99055328 -0.19617351 179.88517761 8.13371277 C187.54864802 16.402194 186.19376019 30.84374632 186.18595886 41.42277527 C186.19024399 42.72902863 186.19452911 44.03528198 186.19894409 45.38111877 C186.2063242 48.11558659 186.20617081 50.849925 186.20085144 53.58439636 C186.19499517 57.08706269 186.21217305 60.58921074 186.23519611 64.09179115 C186.25342456 67.45214189 186.24975075 70.8123753 186.24845886 74.17277527 C186.25766861 75.42893646 186.26687836 76.68509766 186.27636719 77.97932434 C186.267024 79.71791214 186.267024 79.71791214 186.25749207 81.49162292 C186.25812149 82.51164398 186.25875092 83.53166504 186.25939941 84.58259583 C185.88517761 87.13371277 185.88517761 87.13371277 184.59237671 88.97462463 C181.83643294 90.84574894 179.1077737 90.31612387 175.88517761 90.13371277 C175.88517761 93.43371277 175.88517761 96.73371277 175.88517761 100.13371277 C177.34890808 100.09890808 177.34890808 100.09890808 178.84220886 100.06340027 C180.75066589 100.03632996 180.75066589 100.03632996 182.69767761 100.00871277 C183.96224792 99.98550964 185.22681824 99.96230652 186.52970886 99.93840027 C189.88517761 100.13371277 189.88517761 100.13371277 192.88517761 102.13371277 C193.93494726 105.2830217 193.98649356 107.52185733 193.94767761 110.82121277 C193.93865417 111.81507996 193.92963074 112.80894714 193.92033386 113.83293152 C193.90293152 114.97181824 193.90293152 114.97181824 193.88517761 116.13371277 C194.47943542 116.15949402 195.07369324 116.18527527 195.68595886 116.21183777 C204.99587652 116.84890834 213.39472735 119.42670305 220.88517761 125.13371277 C222.12267761 125.99996277 222.12267761 125.99996277 223.38517761 126.88371277 C234.09245233 136.52026002 237.74216296 148.16857959 238.88517761 162.13371277 C239.02827612 166.24259672 239.03302159 170.34843278 239.03234863 174.45953369 C239.03602532 175.67691662 239.03970201 176.89429954 239.04349011 178.14857286 C239.05256111 181.50643311 239.05721425 184.86424473 239.05987942 188.22211254 C239.06380554 191.85215874 239.0733819 195.48219111 239.08209229 199.11222839 C239.10178859 207.86650448 239.11191274 216.62078161 239.12082008 225.3750743 C239.1252129 229.50572083 239.13057699 233.6363661 239.13580894 237.76701164 C239.15281195 251.51073089 239.16730507 265.25444938 239.17455769 278.99817753 C239.17646731 282.55889957 239.17838769 286.11962161 239.18034363 289.68034363 C239.18082737 290.56525096 239.18131111 291.4501583 239.18180951 292.36188101 C239.19010621 306.69006222 239.2154412 321.01815986 239.24792431 335.3463046 C239.28105717 350.08203015 239.29901193 364.8177133 239.30220193 379.55347627 C239.30436091 387.8168831 239.31301999 396.08016793 239.3386631 404.34353828 C239.36045515 411.38175847 239.36837886 418.41982698 239.35869632 425.45807708 C239.35417651 429.04293715 239.35590091 432.6274848 239.37545776 436.21230125 C239.55898009 471.86088944 239.55898009 471.86088944 229.88517761 486.13371277 C229.22517761 486.13371277 228.56517761 486.13371277 227.88517761 486.13371277 C227.57580261 486.96902527 227.57580261 486.96902527 227.26017761 487.82121277 C223.08945198 494.83561497 215.36900591 497.8067315 207.88517761 500.13371277 C203.17723949 500.77743878 198.56017258 500.74077705 193.81486511 500.65715027 C192.37088302 500.65077059 190.92688953 500.64666379 189.4828949 500.64454651 C185.4384248 500.63198937 181.39483081 500.587506 177.35066986 500.53775024 C172.91420674 500.48802082 168.47759481 500.46518986 164.04093933 500.43937683 C157.88222585 500.40141538 151.72360883 500.35863956 145.5650177 500.30412292 C127.09914444 500.14282165 108.63406438 500.08842367 90.16762006 500.05060256 C78.3080134 500.02549853 66.44845883 499.98368504 54.58890724 499.94017601 C45.399068 499.90677455 36.20928407 499.87884477 27.01939392 499.86436462 C19.05362987 499.85154739 11.0880593 499.82405099 3.12240648 499.77970159 C-1.00853146 499.75710427 -5.13923545 499.74072363 -9.27024078 499.74172592 C-38.2462902 499.74040866 -38.2462902 499.74040866 -52.22077942 497.47062683 C-53.10975355 497.33278652 -53.99872768 497.19494621 -54.91464043 497.05292892 C-62.24859437 495.65116924 -67.43149459 492.04600741 -73.21191597 487.47560501 C-75.63740827 485.76519546 -77.42597344 485.63955809 -80.36482239 485.44621277 C-81.70286926 485.34759949 -81.70286926 485.34759949 -83.06794739 485.24699402 C-83.74341614 485.20961121 -84.41888489 485.17222839 -85.11482239 485.13371277 C-81.67961759 482.84357624 -80.12949139 482.95528304 -76.11482239 483.13371277 C-76.38036926 482.62324402 -76.64591614 482.11277527 -76.91950989 481.58683777 C-81.93081081 471.27160521 -82.41325097 460.58741058 -82.36878967 449.28181458 C-82.37190965 448.04412303 -82.37502964 446.80643149 -82.37824416 445.53123415 C-82.38479464 442.13061874 -82.38250042 438.7302274 -82.37627172 435.32962608 C-82.37171805 431.64854576 -82.37874542 427.96748402 -82.38423157 424.28640747 C-82.39309681 417.08836398 -82.39121623 409.89036235 -82.38540629 402.69231726 C-82.38087777 396.83793373 -82.38028203 390.98356188 -82.38245392 385.12917709 C-82.38276038 384.29391064 -82.38306685 383.45864418 -82.3833826 382.59806662 C-82.3840221 380.90087426 -82.38467053 379.20368191 -82.38532779 377.50648956 C-82.39102286 361.613544 -82.38448648 345.72062156 -82.37372705 329.8276798 C-82.36479558 316.2138589 -82.36634186 302.60007212 -82.37556458 288.98625183 C-82.38628743 273.15079321 -82.39047017 257.31535483 -82.38434005 241.47989309 C-82.383703 239.78855539 -82.38307426 238.09721768 -82.38245392 236.40587997 C-82.38214537 235.57386439 -82.38183682 234.7418488 -82.38151892 233.88462061 C-82.37979777 228.04358045 -82.38269458 222.20255321 -82.38741302 216.36151505 C-82.39304444 209.23403601 -82.39145827 202.10660099 -82.38085154 194.97912695 C-82.37562459 191.34800676 -82.37348672 187.71695973 -82.38014984 184.08584023 C-82.38728583 180.1370456 -82.37871878 176.18836863 -82.36878967 172.23957825 C-82.37325112 171.10958613 -82.37771256 169.97959401 -82.3823092 168.81535971 C-82.3046392 152.79223771 -80.21677762 140.23478651 -68.80232239 128.38371277 C-65.44002564 125.13371277 -65.44002564 125.13371277 -63.11482239 125.13371277 C-63.11482239 124.14371277 -63.11482239 123.15371277 -63.11482239 122.13371277 C-54.96227011 118.56046645 -47.09680191 115.94294506 -38.11482239 116.13371277 C-38.12642395 115.06250183 -38.13802551 113.99129089 -38.14997864 112.88761902 C-38.15935537 111.49048534 -38.1684557 110.09334978 -38.17732239 108.69621277 C-38.18989075 107.6356366 -38.18989075 107.6356366 -38.20271301 106.55363464 C-38.21135826 104.74677717 -38.1670225 102.93983674 -38.11482239 101.13371277 C-37.11482239 100.13371277 -37.11482239 100.13371277 -33.29841614 100.03605652 C-31.71635557 100.04273188 -30.1343108 100.05469401 -28.55232239 100.07121277 C-27.74601379 100.07572449 -26.9397052 100.08023621 -26.10896301 100.08488464 C-24.11088483 100.09670759 -22.11284456 100.11464363 -20.11482239 100.13371277 C-20.11482239 96.83371277 -20.11482239 93.53371277 -20.11482239 90.13371277 C-21.57919739 90.15433777 -23.04357239 90.17496277 -24.55232239 90.19621277 C-26.07314757 90.21763284 -27.59554201 90.20551241 -29.11482239 90.13371277 C-30.93788978 88.31064538 -30.25206445 85.44607459 -30.26008606 82.99674988 C-30.26646591 81.68125656 -30.27284576 80.36576324 -30.27941895 79.01040649 C-30.28094844 77.56062354 -30.28206196 76.1108401 -30.28279114 74.66105652 C-30.28600381 73.17949389 -30.28936789 71.69793158 -30.2928772 70.21636963 C-30.29887873 67.10165167 -30.3007163 63.98696149 -30.30012512 60.87223816 C-30.300024 56.89678348 -30.31361935 52.92150943 -30.33089733 48.94609737 C-30.34206933 45.88071897 -30.34404266 42.81538332 -30.3435154 39.74998665 C-30.34468987 38.28568976 -30.34908156 36.82139156 -30.35684776 35.35711479 C-30.44811623 16.35366301 -30.44811623 16.35366301 -25.11482239 9.63371277 C-24.59919739 8.96340027 -24.08357239 8.29308777 -23.55232239 7.60246277 C-23.07794739 7.11777527 -22.60357239 6.63308777 -22.11482239 6.13371277 C-21.45482239 6.13371277 -20.79482239 6.13371277 -20.11482239 6.13371277 C-20.11482239 5.47371277 -20.11482239 4.81371277 -20.11482239 4.13371277 C-13.32213725 1.0090776 -7.53650845 0.010215 0 0 Z M-60.11482239 152.13371277 C-60.83669739 153.02058777 -61.55857239 153.90746277 -62.30232239 154.82121277 C-66.92555639 163.27057146 -67.55705121 172.62598125 -67.50250244 182.08120728 C-67.50788798 183.22159913 -67.51327352 184.36199098 -67.51882225 185.53694016 C-67.53303047 189.32508826 -67.52601561 193.1128834 -67.51887512 196.90104675 C-67.52294214 199.63046668 -67.53144834 202.35986904 -67.53967285 205.08927917 C-67.55680275 211.71348726 -67.55771307 218.33760024 -67.55245995 224.96182471 C-67.54840644 230.34949916 -67.54987576 235.73714567 -67.55520821 241.1248188 C-67.55595663 241.89376531 -67.55670505 242.66271182 -67.55747615 243.45495974 C-67.55900774 245.01742983 -67.56054609 246.57989991 -67.56209112 248.14236999 C-67.57579493 262.76962053 -67.57039322 277.39681746 -67.55890591 292.02406675 C-67.54897388 305.38411824 -67.56191741 318.74403123 -67.5858401 332.10406136 C-67.61026485 345.84885925 -67.6198308 359.59359272 -67.61318737 373.33841187 C-67.60970288 381.0444298 -67.61187622 388.75034126 -67.6294384 396.4563427 C-67.64420264 403.01553175 -67.6447409 409.57453932 -67.62736749 416.13372498 C-67.61888977 419.47527142 -67.61881946 422.81622996 -67.63201904 426.15780067 C-67.92520495 450.94329711 -67.92520495 450.94329711 -56.11482239 472.13371277 C-47.00663492 480.66155554 -38.25364448 483.28351796 -26.01446533 483.28088379 C-25.09577716 483.28456048 -24.177089 483.28823717 -23.23056179 483.29202527 C-20.15087931 483.3030419 -17.07123059 483.30690254 -13.99153137 483.31071472 C-11.78369032 483.31698094 -9.57585032 483.32362788 -7.36801147 483.33062744 C-0.11565381 483.35165293 7.13670403 483.36202904 14.38908386 483.37199402 C16.88786772 483.37604226 19.38665147 483.38015921 21.8854351 483.3843441 C32.28172382 483.40121106 42.67801098 483.41584517 53.07431126 483.42309284 C55.76981164 483.42500255 58.46531202 483.42692291 61.16081238 483.42887878 C61.83071608 483.42936252 62.50061979 483.42984626 63.19082361 483.43034466 C74.03328328 483.43863802 84.87563238 483.46396471 95.71804381 483.49645946 C106.86469798 483.52959203 118.01131224 483.5472149 129.15801948 483.55073708 C135.41040841 483.5530848 141.66262251 483.56200921 147.91496468 483.58719826 C153.80093683 483.61052826 159.68661965 483.61469222 165.57262611 483.60443687 C167.7268139 483.60394259 169.88101618 483.61023105 172.03516006 483.62399292 C185.90508925 483.70760703 198.69290024 483.68686841 209.85002136 474.25090027 C219.05989977 464.66979835 222.3388493 454.28173753 222.29977417 441.3457489 C222.31208587 439.58833476 222.31208587 439.58833476 222.32464629 437.79541731 C222.34415989 434.56064481 222.3503477 431.3261726 222.35064685 428.09135151 C222.35416078 424.59553634 222.37479109 421.0998136 222.39297485 417.60404968 C222.42932553 409.96733448 222.44334334 402.33067696 222.45281196 394.69388771 C222.45884381 389.91901319 222.46960865 385.14415675 222.48131752 380.36929321 C222.51306755 367.13088496 222.53977369 353.89249274 222.54606915 340.6540451 C222.54647628 339.80767903 222.54688342 338.96131295 222.54730289 338.08929941 C222.54811055 336.37373829 222.54891628 334.65817717 222.54972007 332.94261605 C222.55012565 332.09108812 222.55053123 331.2395602 222.5509491 330.36222839 C222.55135108 329.50965232 222.55175305 328.65707624 222.55216721 327.77866453 C222.55964996 313.97730417 222.60409762 300.17633499 222.66480651 286.37511593 C222.72673507 272.18181074 222.75843148 257.98870003 222.75989658 243.79525709 C222.76139332 235.83573378 222.77545298 227.87669258 222.82271385 219.91729736 C222.86280742 213.13692232 222.87491988 206.35719494 222.85172822 199.57672936 C222.84071925 196.12315783 222.84212542 192.67087162 222.87919617 189.217453 C223.02343003 172.97082823 222.87126116 158.9683987 211.41039562 146.4252243 C209.3212504 144.43871467 207.26648024 142.75402461 204.88517761 141.13371277 C203.82363464 140.38541199 203.82363464 140.38541199 202.74064636 139.62199402 C195.51539391 135.85616476 188.26974525 134.68831939 180.20805359 134.74603271 C179.28776572 134.74064718 178.36747785 134.73526164 177.41930246 134.7297129 C174.36416798 134.71551155 171.30947157 134.72251761 168.25431824 134.72966003 C166.0523443 134.72395244 163.85037333 134.71698668 161.64840698 134.7088623 C155.68773113 134.69096053 149.72720273 134.69209352 143.7665081 134.69780469 C138.78385504 134.70090033 133.80123015 134.69480002 128.8185811 134.68876594 C116.39095057 134.67393124 103.96338543 134.677526 91.53575808 134.68962925 C80.76015057 134.69956331 69.98471473 134.68661396 59.20913368 134.66269506 C48.1233334 134.63827436 37.03760222 134.62910248 25.95177412 134.63534778 C19.73643155 134.63871507 13.52123086 134.63631702 7.3059082 134.61909676 C1.46170714 134.60361033 -4.38216639 134.60760236 -10.2263546 134.6264019 C-12.36686326 134.63008279 -14.50739628 134.62699399 -16.64788246 134.61651611 C-19.57819586 134.60327064 -22.50743049 134.61488538 -25.43769836 134.63250732 C-26.696969 134.61809981 -26.696969 134.61809981 -27.98167944 134.60340124 C-40.97415858 134.76328935 -52.46162627 141.92162592 -60.11482239 152.13371277 Z " fill="#C6C6C6" transform="translate(374.1148223876953,151.8662872314453)"/>
<path d="M0 0 C78.87 0 157.74 0 239 0 C239 50.16 239 100.32 239 152 C160.13 152 81.26 152 0 152 C0 101.84 0 51.68 0 0 Z " fill="#ECECEC" transform="translate(319,344)"/>
<path d="M0 0 C0.69298036 -0.00226556 1.38596072 -0.00453111 2.09994048 -0.00686532 C4.40963634 -0.01316841 6.71927296 -0.01237834 9.02897644 -0.0115509 C10.69011511 -0.01454471 12.35125308 -0.01794775 14.01239014 -0.02172852 C18.51663144 -0.0305504 23.02085374 -0.03290587 27.52510285 -0.0335443 C30.34171575 -0.03425586 33.15832383 -0.03639218 35.97493553 -0.03904152 C45.80838197 -0.04828909 55.64181486 -0.05237716 65.4752655 -0.05158997 C74.62972428 -0.0509894 83.78412408 -0.06153865 92.93856794 -0.07733363 C100.8079817 -0.09042576 108.67737623 -0.09577316 116.54680079 -0.09513456 C121.24245222 -0.09488005 125.93805124 -0.09770495 130.63369179 -0.10831261 C135.0520685 -0.11802169 139.47034298 -0.11805354 143.88872337 -0.11079597 C145.50556971 -0.10975361 147.12242251 -0.11209225 148.73925781 -0.11815643 C170.99055328 -0.19617351 170.99055328 -0.19617351 179.88517761 8.13371277 C187.54864802 16.402194 186.19376019 30.84374632 186.18595886 41.42277527 C186.19024399 42.72902863 186.19452911 44.03528198 186.19894409 45.38111877 C186.2063242 48.11558659 186.20617081 50.849925 186.20085144 53.58439636 C186.19499517 57.08706269 186.21217305 60.58921074 186.23519611 64.09179115 C186.25342456 67.45214189 186.24975075 70.8123753 186.24845886 74.17277527 C186.25766861 75.42893646 186.26687836 76.68509766 186.27636719 77.97932434 C186.2701384 79.13838287 186.26390961 80.29744141 186.25749207 81.49162292 C186.25812149 82.51164398 186.25875092 83.53166504 186.25939941 84.58259583 C185.88517761 87.13371277 185.88517761 87.13371277 184.59237671 88.97462463 C181.83643294 90.84574894 179.1077737 90.31612387 175.88517761 90.13371277 C175.88517761 92.77371277 175.88517761 95.41371277 175.88517761 98.13371277 C111.20517761 97.80371277 46.52517761 97.47371277 -20.11482239 97.13371277 C-20.11482239 94.82371277 -20.11482239 92.51371277 -20.11482239 90.13371277 C-20.75290833 90.14531433 -21.39099426 90.15691589 -22.04841614 90.16886902 C-22.8747052 90.17789246 -23.70099426 90.18691589 -24.55232239 90.19621277 C-25.78788879 90.21361511 -25.78788879 90.21361511 -27.04841614 90.23136902 C-29.11482239 90.13371277 -29.11482239 90.13371277 -30.11482239 89.13371277 C-30.21951522 87.09016548 -30.25338464 85.04296619 -30.26008606 82.99674988 C-30.26646591 81.68125656 -30.27284576 80.36576324 -30.27941895 79.01040649 C-30.28094844 77.56062354 -30.28206196 76.1108401 -30.28279114 74.66105652 C-30.28600381 73.17949389 -30.28936789 71.69793158 -30.2928772 70.21636963 C-30.29887873 67.10165167 -30.3007163 63.98696149 -30.30012512 60.87223816 C-30.300024 56.89678348 -30.31361935 52.92150943 -30.33089733 48.94609737 C-30.34206933 45.88071897 -30.34404266 42.81538332 -30.3435154 39.74998665 C-30.34468987 38.28568976 -30.34908156 36.82139156 -30.35684776 35.35711479 C-30.44811623 16.35366301 -30.44811623 16.35366301 -25.11482239 9.63371277 C-24.59919739 8.96340027 -24.08357239 8.29308777 -23.55232239 7.60246277 C-22.84075989 6.87543152 -22.84075989 6.87543152 -22.11482239 6.13371277 C-21.45482239 6.13371277 -20.79482239 6.13371277 -20.11482239 6.13371277 C-20.11482239 5.47371277 -20.11482239 4.81371277 -20.11482239 4.13371277 C-13.32213725 1.0090776 -7.53650845 0.010215 0 0 Z " fill="#9D9D9D" transform="translate(374.1148223876953,151.8662872314453)"/>
<path d="M0 0 C1.89883438 -0.01029488 1.89883438 -0.01029488 3.83602905 -0.02079773 C7.29272712 -0.03867469 10.74917058 -0.03757118 14.20590091 -0.03185534 C17.09843858 -0.02875553 19.9909279 -0.03486472 22.88345867 -0.04089409 C29.71059574 -0.05491976 36.53760762 -0.05339441 43.36474609 -0.04199219 C50.39320163 -0.03051268 57.4212755 -0.04458799 64.44968075 -0.07138866 C70.49833173 -0.09358439 76.54686324 -0.10017436 82.59555203 -0.09431225 C86.20190613 -0.0909507 89.80801564 -0.09330389 93.41433525 -0.11056328 C97.43792563 -0.12898095 101.46077899 -0.11480575 105.484375 -0.09765625 C107.26215584 -0.1121582 107.26215584 -0.1121582 109.07585144 -0.12695312 C115.91544326 -0.06598012 120.53426771 0.61501903 126.30688477 4.40405273 C127.30688477 7.15405273 127.30688477 7.15405273 127.30688477 9.40405273 C126.8105957 9.78174805 126.31430664 10.15944336 125.80297852 10.54858398 C117.17717945 17.53760903 110.93876395 26.61156286 109.76104259 37.82032204 C109.19116202 43.89230549 109.1649048 49.93424602 109.173172 56.02890015 C109.16977366 57.88499088 109.16977366 57.88499088 109.16630667 59.7785784 C109.16109772 63.18751198 109.16031726 66.59639253 109.16150105 70.00532627 C109.16170612 73.69185317 109.15617626 77.37837237 109.15144348 81.06489563 C109.14315996 88.27723542 109.1403897 95.48956704 109.1398311 102.7019112 C109.13935494 108.56684563 109.13729522 114.43177738 109.13413048 120.29671097 C109.12533095 136.944114 109.12071012 153.59151059 109.12146095 170.23891596 C109.12150091 171.13516891 109.12154086 172.03142186 109.12158203 172.95483398 C109.12164335 174.30086429 109.12164335 174.30086429 109.12170591 175.67408712 C109.1221124 190.2182735 109.11254023 204.762434 109.09844366 219.30661289 C109.08406606 234.25931335 109.07717421 249.21200119 109.07803744 264.16470873 C109.07836888 272.5520103 109.07564479 280.93928472 109.06485939 289.32658005 C109.05573626 296.46660372 109.05359408 303.60658793 109.06036881 310.74661492 C109.0636246 314.3855775 109.06372487 318.02446443 109.05501556 321.66341972 C109.04565001 325.6173938 109.05195097 329.57125852 109.05964661 333.52523804 C109.05193126 335.2310111 109.05193126 335.2310111 109.04406005 336.97124422 C109.08499343 346.52363076 109.53144223 355.93849551 114.30688477 364.40405273 C114.30688477 365.39405273 114.30688477 366.38405273 114.30688477 367.40405273 C111.00688477 368.06405273 107.70688477 368.72405273 104.30688477 369.40405273 C104.30688477 368.74405273 104.30688477 368.08405273 104.30688477 367.40405273 C103.31688477 367.40405273 102.32688477 367.40405273 101.30688477 367.40405273 C99.77172852 365.53295898 99.77172852 365.53295898 98.24438477 362.96655273 C97.7377832 362.1428418 97.23118164 361.31913086 96.70922852 360.47045898 C93.15067255 352.68921544 93.02424364 344.80094831 93.07983398 336.36669922 C93.07959291 335.17615212 93.07935184 333.98560503 93.07910347 332.75898075 C93.08058821 328.93095818 93.09578261 325.10313391 93.11157227 321.27514648 C93.1145153 318.90149021 93.11655414 316.52783264 93.11767578 314.1541748 C93.12813297 305.3832809 93.15605551 296.61241484 93.18188477 287.84155273 C93.22313477 268.22717773 93.26438477 248.61280273 93.30688477 228.40405273 C47.76688477 228.73405273 2.22688477 229.06405273 -44.69311523 229.40405273 C-44.69311523 212.40405273 -44.69311523 212.40405273 -43.69311523 211.40405273 C-41.93379775 211.31993906 -40.1710415 211.30717938 -38.40977478 211.32176208 C-37.26646918 211.32878112 -36.12316359 211.33580015 -34.94521236 211.34303188 C-33.67471318 211.35599835 -32.404214 211.36896482 -31.09521484 211.38232422 C-29.7334223 211.39264577 -28.37162634 211.4025251 -27.00982761 211.41199589 C-23.35091911 211.43867147 -19.69208826 211.47142854 -16.03324127 211.50540924 C-12.60450141 211.53634188 -9.17572974 211.56183824 -5.74694824 211.58776855 C4.29187416 211.66687703 14.3306259 211.75475508 24.36938477 211.84155273 C46.78875977 212.02717773 69.20813477 212.21280273 92.30688477 212.40405273 C92.30688477 166.20405273 92.30688477 120.00405273 92.30688477 72.40405273 C56.00688477 72.07405273 19.70688477 71.74405273 -17.69311523 71.40405273 C-18.02311523 69.09405273 -18.35311523 66.78405273 -18.69311523 64.40405273 C-19.02311523 65.06405273 -19.35311523 65.72405273 -19.69311523 66.40405273 C-21.34311523 66.40405273 -22.99311523 66.40405273 -24.69311523 66.40405273 C-26.39500708 63.4315087 -26.94763433 61.28458758 -26.96777344 57.87011719 C-26.98207146 56.53271233 -26.98207146 56.53271233 -26.99665833 55.16828918 C-26.99574692 54.21097397 -26.99483551 53.25365875 -26.99389648 52.26733398 C-26.99818161 51.27332077 -27.00246674 50.27930756 -27.00688171 49.25517273 C-27.01262258 47.15124268 -27.01312707 45.04729278 -27.00878906 42.94335938 C-27.00564386 39.74566102 -27.02904027 36.54890137 -27.05444336 33.35131836 C-27.05671804 31.30249139 -27.05741906 29.25366196 -27.05639648 27.20483398 C-27.06560623 26.25763992 -27.07481598 25.31044586 -27.08430481 24.33454895 C-27.04203423 18.17688351 -26.00528579 13.11383267 -23.69311523 7.40405273 C-23.03311523 7.40405273 -22.37311523 7.40405273 -21.69311523 7.40405273 C-21.50749023 6.80592773 -21.32186523 6.20780273 -21.13061523 5.59155273 C-16.65831561 -1.21412061 -7.14042983 -0.02707496 0 0 Z " fill="#909090" transform="translate(183.693115234375,267.595947265625)"/>
<path d="M0 0 C11.55225907 5.26783014 21.10780831 14.56974234 29.9375 23.5 C30.17726563 22.93796875 30.41703125 22.3759375 30.6640625 21.796875 C36.15152512 11.89924304 48.08134724 3.50001847 58.5 -0.5 C65.32809811 -2.37680093 72.14941038 -2.80709848 78.5625 0.5 C89.31479672 7.36685139 97.01999069 15.85305919 99.9375 28.5 C100.96303135 38.24083666 100.8867598 47.85285575 95.9375 56.5 C95.40125 57.48871094 94.865 58.47742188 94.3125 59.49609375 C80.89211359 82.786056 59.7654028 98.72331907 37.203125 112.50390625 C35.08953577 113.79582502 32.99862034 115.12591977 30.9375 116.5 C25.85907795 116.26161034 22.09956365 114.1902561 17.875 111.5625 C17.22160645 111.16208496 16.56821289 110.76166992 15.89501953 110.34912109 C9.21705749 106.17802298 3.02399125 101.4840394 -3.0625 96.5 C-3.90240479 95.81454102 -3.90240479 95.81454102 -4.75927734 95.11523438 C-15.80907379 86.04969925 -24.94330224 76.89919579 -32.98632812 65.07568359 C-33.87505555 63.77444793 -34.78619508 62.48854997 -35.703125 61.20703125 C-42.58294561 51.1566909 -43.70472107 38.34862499 -42.0625 26.5 C-38.71889272 15.2406558 -30.00937631 5.10957436 -19.73046875 -0.5 C-13.16800846 -2.95972157 -6.52171788 -2.29448712 0 0 Z " fill="#9D9D9D" transform="translate(376.0625,362.5)"/>
<path d="M0 0 C0.33 0 0.66 0 1 0 C1.495 4.455 1.495 4.455 2 9 C3.36333969 9.01030746 4.72667938 9.02061493 6.1313324 9.03123474 C18.9488304 9.12878339 31.76627783 9.23149937 44.5836935 9.33933926 C51.17402368 9.39461945 57.76435824 9.44804745 64.35473633 9.49731445 C70.70895967 9.54488301 77.06312708 9.59722281 83.41728401 9.65294075 C85.84748005 9.67339844 88.27769145 9.69210573 90.70791435 9.70907402 C94.09887143 9.7330427 97.48972166 9.7631072 100.88061523 9.79467773 C102.40406807 9.80331093 102.40406807 9.80331093 103.95829773 9.81211853 C104.87681519 9.82190735 105.79533264 9.83169617 106.74168396 9.84178162 C107.94600649 9.85146044 107.94600649 9.85146044 109.17465878 9.8613348 C111 10 111 10 112 11 C112.08758003 12.99964982 112.10696576 15.0023611 112.09765625 17.00390625 C112.09443359 18.21884766 112.09121094 19.43378906 112.08789062 20.68554688 C112.07951172 21.96494141 112.07113281 23.24433594 112.0625 24.5625 C112.05798828 25.84576172 112.05347656 27.12902344 112.04882812 28.45117188 C112.03699545 31.63416022 112.02051068 34.81705762 112 38 C111.04750209 38.00081715 111.04750209 38.00081715 110.0757618 38.00165081 C94.5917292 38.01664835 79.10805115 38.05921468 63.62419319 38.13209057 C56.13614806 38.16667567 48.64828579 38.19208754 41.16015625 38.19555664 C34.62995492 38.19860561 28.10007979 38.21922049 21.57000434 38.26052457 C18.11546755 38.28177252 14.6613935 38.29449803 11.20679092 38.28615379 C7.34083351 38.27714628 3.47569918 38.30737414 -0.39013672 38.34057617 C-1.52302628 38.33195053 -2.65591583 38.32332489 -3.82313538 38.31443787 C-12.31752368 38.43631099 -18.93117267 40.4984611 -25.4375 46.09765625 C-26.2109375 47.07025391 -26.2109375 47.07025391 -27 48.0625 C-27.53625 48.71347656 -28.0725 49.36445313 -28.625 50.03515625 C-33.11957707 56.45780474 -33.14245652 63.06217499 -33.0625 70.6484375 C-33.05871338 71.49628815 -33.05492676 72.34413879 -33.05102539 73.21768188 C-33.03500588 76.80225127 -33.00780677 80.38670054 -32.97949219 83.97119141 C-32.90551571 94.25586801 -32.98745719 104.5142957 -33.36205673 114.79344177 C-33.98398764 131.94771174 -34.11237894 149.07682175 -33.99825954 166.24158096 C-33.98409888 168.41742663 -33.97156582 170.59327622 -33.9595108 172.76913452 C-33.91705402 180.39708528 -33.8680519 188.02496223 -33.81298828 195.65283203 C-33.76220521 202.71514926 -33.72726365 209.77743418 -33.69905448 216.83987427 C-33.67382129 222.96976393 -33.63724298 229.09951964 -33.59196877 235.22929382 C-33.56534233 238.86313941 -33.54325343 242.49686664 -33.53295135 246.13079834 C-33.52113344 250.15644021 -33.48574118 254.18154668 -33.44824219 258.20703125 C-33.44810623 259.39034531 -33.44797028 260.57365936 -33.4478302 261.79283142 C-33.32971328 271.09012617 -31.78720989 278.16989477 -25.14729118 285.03968525 C-17.76153773 291.7823206 -9.85827083 292.73171715 -0.20654297 292.65942383 C1.03362076 292.66990753 2.27378448 292.68039124 3.55152893 292.69119263 C6.92112035 292.71490241 10.28936176 292.7169068 13.65893412 292.70889878 C17.19173292 292.70575538 20.72433393 292.7308613 24.25704956 292.75285339 C30.93266289 292.7901787 37.60807256 292.80243451 44.28377998 292.8054778 C51.8897687 292.8101812 59.495555 292.8431454 67.10145402 292.87837565 C82.73428818 292.95015885 98.36699987 292.98680262 114 293 C114.81498562 294.6029053 115.62689927 296.20737278 116.4375 297.8125 C116.88996094 298.70582031 117.34242188 299.59914063 117.80859375 300.51953125 C119 303 119 303 120 306 C120.99 306 121.98 306 123 306 C123 306.66 123 307.32 123 308 C107.10874199 308.02346327 91.21748873 308.04104466 75.32621765 308.05181217 C67.94598813 308.0569468 60.56576944 308.06393485 53.18554688 308.07543945 C46.74553195 308.08547355 40.30552488 308.09187398 33.86550236 308.09408849 C30.46231679 308.09538093 27.05915365 308.09837213 23.65597534 308.10573006 C-27.10497752 308.20327502 -27.10497752 308.20327502 -38 298 C-47.51766558 286.47861535 -47.47621645 271.69670729 -47.3125 257.5 C-47.30374898 255.77848451 -47.29529352 254.0569675 -47.28710938 252.33544922 C-47.20048778 240.81556756 -46.73388586 229.33200573 -46.13937378 217.82879639 C-45.12635906 198.17671001 -44.75 178.55045708 -44.75 158.875 C-44.75 158.18424 -44.75 157.49348 -44.75 156.78178787 C-44.76064651 133.99006632 -45.34238834 111.24364392 -46.42807007 88.4760437 C-46.79550287 80.69405878 -47.1085561 72.92015836 -47.1640625 65.12890625 C-47.1738916 64.4290712 -47.1837207 63.72923615 -47.19384766 63.00819397 C-47.19384766 53.08213176 -45.20290922 42.11006652 -38.5 34.46875 C-32.97341402 29.05730123 -27.33884847 25.47272393 -19.8125 23.8125 C-17.20968615 23.21386526 -17.20968615 23.21386526 -15 22 C-13.73967577 19.73057897 -13.01775286 17.49110666 -12.203125 15.03125 C-11 13 -11 13 -8.546875 11.96875 C-6.01845134 11.48849076 -3.56792788 11.1519194 -1 11 C-1.020625 9.741875 -1.04125 8.48375 -1.0625 7.1875 C-1.10886083 4.35948913 -0.91692961 2.75078884 0 0 Z " fill="#C8C8C8" transform="translate(165,329)"/>
<path d="M0 0 C6.15234375 -0.09765625 6.15234375 -0.09765625 8 0 C9 1 9 1 9.12025452 3.51197815 C9.1169236 5.18742958 9.1169236 5.18742958 9.11352539 6.89672852 C9.11344986 8.15796036 9.11337433 9.4191922 9.11329651 10.71864319 C9.1081891 12.10539794 9.10297309 13.49215229 9.09765625 14.87890625 C9.09579201 16.28995209 9.09436814 17.70099857 9.09336853 19.11204529 C9.08954379 22.83240535 9.0797139 26.5527266 9.06866455 30.27307129 C9.05844948 34.06680781 9.05387071 37.86055058 9.04882812 41.65429688 C9.03809158 49.10288231 9.0210157 56.55143572 9 64 C11.97 64 14.94 64 18 64 C18 42.88 18 21.76 18 0 C20.97 0 23.94 0 27 0 C27 21.12 27 42.24 27 64 C30.3 64 33.6 64 37 64 C37 42.88 37 21.76 37 0 C39.64 0 42.28 0 45 0 C45 21.12 45 42.24 45 64 C49.62 64 54.24 64 59 64 C59 42.88 59 21.76 59 0 C61.64 0 64.28 0 67 0 C67 21.12 67 42.24 67 64 C71.62 64 76.24 64 81 64 C81 42.88 81 21.76 81 0 C83.64 0 86.28 0 89 0 C89 21.12 89 42.24 89 64 C93.62 64 98.24 64 103 64 C103 42.88 103 21.76 103 0 C105.64 0 108.28 0 111 0 C111 21.12 111 42.24 111 64 C115.62 64 120.24 64 125 64 C125 42.88 125 21.76 125 0 C127.64 0 130.28 0 133 0 C133 21.12 133 42.24 133 64 C137.62 64 142.24 64 147 64 C147 42.88 147 21.76 147 0 C149.64 0 152.28 0 155 0 C155 21.12 155 42.24 155 64 C158.3 64 161.6 64 165 64 C165 42.88 165 21.76 165 0 C167.64 0 170.28 0 173 0 C173 21.12 173 42.24 173 64 C176.3 64 179.6 64 183 64 C183 42.88 183 21.76 183 0 C185.97 0 188.94 0 192 0 C192.0154612 1.26120918 192.0154612 1.26120918 192.03123474 2.54789734 C192.1292828 10.47840893 192.23180757 18.40884736 192.33933926 26.33923626 C192.39446266 30.4161535 192.44786543 34.49307804 192.49731445 38.57006836 C192.54511449 42.50585308 192.59746238 46.44155361 192.65294075 50.37723732 C192.67329361 51.87747916 192.69201808 53.37774402 192.70907402 54.87802696 C192.73327524 56.98216424 192.76330724 59.08614461 192.79467773 61.19018555 C192.81022202 62.38709518 192.8257663 63.58400482 192.84178162 64.81718445 C192.9380314 68.32797831 192.9380314 68.32797831 194 73 C129.32 72.67 64.64 72.34 -2 72 C-2 65 -2 65 -1 63 C-0.87972528 60.99902482 -0.82262742 58.9941379 -0.79467773 56.98974609 C-0.77473251 55.72858978 -0.75478729 54.46743347 -0.73423767 53.1680603 C-0.71725335 51.78652063 -0.70037454 50.40497966 -0.68359375 49.0234375 C-0.6630244 47.61381418 -0.64202793 46.20419703 -0.62062073 44.79458618 C-0.56539805 41.08252965 -0.51598969 37.37041743 -0.46777344 33.65826416 C-0.41755982 29.87108397 -0.36187303 26.08398474 -0.30664062 22.296875 C-0.19905667 14.86465188 -0.09761227 7.43236148 0 0 Z " fill="#818181" transform="translate(356,177)"/>
<path d="M0 0 C18.48 0 36.96 0 56 0 C56 38.28 56 76.56 56 116 C37.52 116 19.04 116 0 116 C0 77.72 0 39.44 0 0 Z " fill="#757575" transform="translate(488,361)"/>
<path d="M0 0 C1.27070847 -0.00365067 2.54141693 -0.00730133 3.85063171 -0.01106262 C7.31955273 -0.02042847 10.78818947 -0.01108379 14.25708818 0.00226951 C17.89424181 0.01362581 21.53138231 0.0094734 25.16854858 0.00752258 C31.27305724 0.00664115 37.37745452 0.01769025 43.48193359 0.03613281 C50.53420823 0.05731712 57.58632 0.06080539 64.63862002 0.05457085 C71.43297446 0.04887253 78.2272717 0.05452716 85.02161789 0.0657444 C87.90906205 0.07038224 90.79647113 0.0712678 93.683918 0.06915855 C97.71514642 0.06692184 101.74614754 0.08139749 105.77734375 0.09765625 C107.57130333 0.09394012 107.57130333 0.09394012 109.40150452 0.09014893 C110.5005159 0.09723373 111.59952728 0.10431854 112.73184204 0.11161804 C113.68418039 0.11367091 114.63651875 0.11572378 115.61771584 0.11783886 C118.47998275 0.39357617 120.65433843 1.18296504 123.25927734 2.37231445 C121.25927734 4.37231445 121.25927734 4.37231445 117.75927734 5.93481445 C107.84539715 10.83767884 101.80462859 18.48709935 97.25927734 28.37231445 C96.92927734 28.37231445 96.59927734 28.37231445 96.25927734 28.37231445 C96.25927734 25.07231445 96.25927734 21.77231445 96.25927734 18.37231445 C93.94927734 18.37231445 91.63927734 18.37231445 89.25927734 18.37231445 C89.25927734 33.55231445 89.25927734 48.73231445 89.25927734 64.37231445 C84.80427734 64.86731445 84.80427734 64.86731445 80.25927734 65.37231445 C80.25927734 49.86231445 80.25927734 34.35231445 80.25927734 18.37231445 C77.94927734 18.37231445 75.63927734 18.37231445 73.25927734 18.37231445 C73.25927734 33.88231445 73.25927734 49.39231445 73.25927734 65.37231445 C70.28927734 65.37231445 67.31927734 65.37231445 64.25927734 65.37231445 C64.25927734 49.86231445 64.25927734 34.35231445 64.25927734 18.37231445 C61.94927734 18.37231445 59.63927734 18.37231445 57.25927734 18.37231445 C57.25927734 33.88231445 57.25927734 49.39231445 57.25927734 65.37231445 C54.28927734 65.04231445 51.31927734 64.71231445 48.25927734 64.37231445 C48.25927734 49.19231445 48.25927734 34.01231445 48.25927734 18.37231445 C45.94927734 18.37231445 43.63927734 18.37231445 41.25927734 18.37231445 C41.25927734 33.88231445 41.25927734 49.39231445 41.25927734 65.37231445 C37.95927734 65.37231445 34.65927734 65.37231445 31.25927734 65.37231445 C31.25927734 49.86231445 31.25927734 34.35231445 31.25927734 18.37231445 C29.27927734 18.37231445 27.29927734 18.37231445 25.25927734 18.37231445 C25.25927734 33.88231445 25.25927734 49.39231445 25.25927734 65.37231445 C21.95927734 65.37231445 18.65927734 65.37231445 15.25927734 65.37231445 C15.25927734 49.86231445 15.25927734 34.35231445 15.25927734 18.37231445 C13.27927734 18.37231445 11.29927734 18.37231445 9.25927734 18.37231445 C9.25927734 33.88231445 9.25927734 49.39231445 9.25927734 65.37231445 C6.94927734 65.37231445 4.63927734 65.37231445 2.25927734 65.37231445 C2.25927734 49.86231445 2.25927734 34.35231445 2.25927734 18.37231445 C-0.05072266 18.37231445 -2.36072266 18.37231445 -4.74072266 18.37231445 C-4.74072266 33.88231445 -4.74072266 49.39231445 -4.74072266 65.37231445 C-7.05072266 65.37231445 -9.36072266 65.37231445 -11.74072266 65.37231445 C-11.74072266 49.86231445 -11.74072266 34.35231445 -11.74072266 18.37231445 C-13.72072266 18.37231445 -15.70072266 18.37231445 -17.74072266 18.37231445 C-17.73024902 19.64872803 -17.71977539 20.9251416 -17.70898438 22.24023438 C-17.67273985 26.98320706 -17.64980589 31.72616754 -17.63085938 36.46923828 C-17.62081197 38.52069153 -17.60717174 40.57213049 -17.58984375 42.62353516 C-17.5655402 45.57498707 -17.55422684 48.52624935 -17.54541016 51.4777832 C-17.53508759 52.39254929 -17.52476501 53.30731537 -17.51412964 54.24980164 C-17.51334187 58.73724501 -17.60232364 62.29899729 -19.74072266 66.37231445 C-21.39072266 66.37231445 -23.04072266 66.37231445 -24.74072266 66.37231445 C-26.4426145 63.39977041 -26.99524175 61.2528493 -27.01538086 57.83837891 C-27.02491287 56.94677567 -27.03444489 56.05517242 -27.04426575 55.1365509 C-27.04335434 54.17923569 -27.04244293 53.22192047 -27.04150391 52.2355957 C-27.04578903 51.24158249 -27.05007416 50.24756927 -27.05448914 49.22343445 C-27.06023 47.1195044 -27.06073449 45.0155545 -27.05639648 42.91162109 C-27.05325129 39.71392274 -27.07664769 36.51716309 -27.10205078 33.31958008 C-27.10432546 31.27075311 -27.10502649 29.22192368 -27.10400391 27.1730957 C-27.11321365 26.22590164 -27.1224234 25.27870758 -27.13191223 24.30281067 C-27.08964165 18.14514523 -26.05289321 13.08209439 -23.74072266 7.37231445 C-23.08072266 7.37231445 -22.42072266 7.37231445 -21.74072266 7.37231445 C-21.55509766 6.77418945 -21.36947266 6.17606445 -21.17822266 5.55981445 C-16.69141938 -1.26792967 -7.15708169 -0.04589792 0 0 Z " fill="#9C9C9C" transform="translate(183.74072265625,267.627685546875)"/>
<path d="M0 0 C0.33 1.65 0.66 3.3 1 5 C0.50371094 5.37769531 0.00742187 5.75539063 -0.50390625 6.14453125 C-10.69709144 14.4035257 -14.07532811 23.24481636 -18 36 C-18.33 46.23 -18.66 56.46 -19 67 C-60.25 67 -101.5 67 -144 67 C-144 49.51 -144 32.02 -144 14 C-142.02 14 -140.04 14 -138 14 C-138 29.51 -138 45.02 -138 61 C-135.69 61 -133.38 61 -131 61 C-131 45.49 -131 29.98 -131 14 C-128.69 14 -126.38 14 -124 14 C-124 29.51 -124 45.02 -124 61 C-121.69 61 -119.38 61 -117 61 C-117 45.49 -117 29.98 -117 14 C-115.02 14 -113.04 14 -111 14 C-111 29.51 -111 45.02 -111 61 C-107.7 61 -104.4 61 -101 61 C-101 45.49 -101 29.98 -101 14 C-99.02 14 -97.04 14 -95 14 C-95 29.51 -95 45.02 -95 61 C-91.7 61 -88.4 61 -85 61 C-85 45.49 -85 29.98 -85 14 C-82.69 14 -80.38 14 -78 14 C-78 29.18 -78 44.36 -78 60 C-75.03 60.33 -72.06 60.66 -69 61 C-69 45.49 -69 29.98 -69 14 C-66.69 14 -64.38 14 -62 14 C-62 29.51 -62 45.02 -62 61 C-59.03 61 -56.06 61 -53 61 C-53 45.49 -53 29.98 -53 14 C-50.69 14 -48.38 14 -46 14 C-46 29.51 -46 45.02 -46 61 C-41.545 60.505 -41.545 60.505 -37 60 C-37 44.82 -37 29.64 -37 14 C-34.69 14 -32.38 14 -30 14 C-29.505 17.465 -29.505 17.465 -29 21 C-28.59910156 20.3709375 -28.19820313 19.741875 -27.78515625 19.09375 C-22.48566649 11.1144729 -11.35943497 -4.25978811 0 0 Z " fill="#858585" transform="translate(310,272)"/>
<path d="M0 0 C2.68855369 0.0018688 5.3771047 0.00333983 8.06565857 0.00428772 C14.3726847 0.00736951 20.67969306 0.01553942 26.98671144 0.02563721 C34.8876219 0.03800653 42.78853537 0.04340605 50.68945312 0.04882812 C64.75001377 0.05850745 78.81053575 0.07854935 92.87109375 0.09765625 C92.87109375 39.03765625 92.87109375 77.97765625 92.87109375 118.09765625 C92.54109375 118.09765625 92.21109375 118.09765625 91.87109375 118.09765625 C91.87109375 87.07765625 91.87109375 56.05765625 91.87109375 24.09765625 C46.66109375 24.09765625 1.45109375 24.09765625 -45.12890625 24.09765625 C-45.12890625 16.50765625 -45.12890625 8.91765625 -45.12890625 1.09765625 C-30.07540346 -0.00512253 -15.08887035 -0.03105562 0 0 Z " fill="#9B9B9B" transform="translate(184.12890625,495.90234375)"/>
<path d="M0 0 C17.49 0 34.98 0 53 0 C53 18.15 53 36.3 53 55 C35.51 55 18.02 55 0 55 C0 36.85 0 18.7 0 0 Z " fill="#EBEBEB" transform="translate(156,425)"/>
<path d="M0 0 C1.6689062 0.00138269 1.6689062 0.00138269 3.37152767 0.00279331 C4.6434396 0.00141865 5.91535152 0.00004398 7.22580624 -0.00137234 C8.64839863 0.00216728 10.07099079 0.00580209 11.49358273 0.00952244 C12.98139602 0.0098043 14.46920945 0.00964659 15.95702267 0.00907993 C20.00849921 0.00879193 24.05994641 0.01468916 28.1114161 0.02165389 C32.34084918 0.02788691 36.57028285 0.02849119 40.79971981 0.0296793 C48.81432643 0.03279277 56.82891947 0.04100637 64.8435201 0.05102879 C73.96549605 0.06218944 83.08747263 0.06770025 92.2094537 0.07272422 C110.97922147 0.08318897 129.74897063 0.10153464 148.51872921 0.12304783 C148.51872921 13.65304783 148.51872921 27.18304783 148.51872921 41.12304783 C143.89872921 41.12304783 139.27872921 41.12304783 134.51872921 41.12304783 C134.51872921 33.20304783 134.51872921 25.28304783 134.51872921 17.12304783 C88.97872921 17.45304783 43.43872921 17.78304783 -3.48127079 18.12304783 C-3.48127079 0.17263848 -3.48127079 0.17263848 0 0 Z " fill="#727272" transform="translate(142.4812707901001,478.8769521713257)"/>
<path d="M0 0 C4.62 0 9.24 0 14 0 C14 36.96 14 73.92 14 112 C9.05 112 4.1 112 -1 112 C-1.02969687 101.02083884 -1.05095277 90.04169483 -1.0625 79.0625 C-1.06335602 78.25431194 -1.06421204 77.44612389 -1.06509399 76.61344528 C-1.08901599 51.06144049 -0.86313924 25.53967368 0 0 Z " fill="#818181" transform="translate(277,367)"/>
<path d="M0 0 C0.66 0 1.32 0 2 0 C3.75901886 7.98419909 5.40051803 15.97329109 6.86767578 24.01538086 C7.90600237 29.65230408 9.14269332 35.23519761 10.44921875 40.81640625 C11.04597034 44.26571506 11.09252179 47.50620099 11 51 C11.66 51 12.32 51 13 51 C13.03867187 50.195625 13.03867187 50.195625 13.078125 49.375 C13.75158722 40.06897655 16.05270762 30.84187714 19 22 C19.66 22 20.32 22 21 22 C22.17133058 24.45620851 23.33721722 26.91474917 24.5 29.375 C24.83386719 30.07367188 25.16773438 30.77234375 25.51171875 31.4921875 C28 36.7734375 28 36.7734375 28 39 C28.77601563 38.93941406 29.55203125 38.87882812 30.3515625 38.81640625 C33.90080439 38.54110706 37.45039048 38.27051607 41 38 C42.83111328 37.85691406 42.83111328 37.85691406 44.69921875 37.7109375 C50.81847793 37.24785843 56.86314714 36.87726294 63 37 C59.93762003 38.69285172 57.09592012 39.54337084 53.67578125 40.25390625 C52.64646484 40.46853516 51.61714844 40.68316406 50.55664062 40.90429688 C48.95079102 41.23010742 48.95079102 41.23010742 47.3125 41.5625 C46.26126953 41.78357422 45.21003906 42.00464844 44.12695312 42.23242188 C38.0901561 43.47584429 32.13715111 44.42805607 26 45 C24.68 41.04 23.36 37.08 22 33 C21.67 33 21.34 33 21 33 C20.47469353 35.20207175 19.94965613 37.40420687 19.42504883 39.60644531 C18.97278469 41.50317406 18.51948674 43.39965658 18.06518555 45.29589844 C16.96307473 49.90592369 15.87619067 54.51748328 14.84765625 59.14453125 C14.67202148 59.92449463 14.49638672 60.70445801 14.31542969 61.50805664 C13.98501165 62.98098325 13.66123191 64.45541774 13.34472656 65.93139648 C12.95911721 67.63631681 12.48779934 69.32145905 12 71 C11.01 71.495 11.01 71.495 10 72 C8.23512633 63.84081879 7.13124474 55.67468112 6.14453125 47.390625 C5.61338081 43.10715367 5.05927103 38.93237461 3.9453125 34.7578125 C2.98684054 30.94768843 2.60096634 27.4167499 2.375 23.5 C2.30023438 22.2728125 2.22546875 21.045625 2.1484375 19.78125 C2.09945312 18.8634375 2.05046875 17.945625 2 17 C1.34 17 0.68 17 0 17 C0.05607422 18.49080078 0.05607422 18.49080078 0.11328125 20.01171875 C-0.00438283 24.15430597 -0.76793899 27.83413818 -1.8125 31.8125 C-3.75435311 39.57904748 -5.14677565 47.36411176 -6.38671875 55.26953125 C-6.82211644 57.91796941 -7.32443038 60.41454396 -8 63 C-8.66 63 -9.32 63 -10 63 C-11.10532217 59.8545715 -12.20903998 56.7085822 -13.3125 53.5625 C-13.7755957 52.24475586 -13.7755957 52.24475586 -14.24804688 50.90039062 C-16.21705458 45.28353707 -18.13648781 39.65274002 -20 34 C-22.81484045 35.40742022 -23.27483399 37.25557592 -24.625 40.0625 C-25.07101562 40.98160156 -25.51703125 41.90070313 -25.9765625 42.84765625 C-26.31429688 43.55792969 -26.65203125 44.26820313 -27 45 C-32.46864457 43.98408579 -37.76390013 42.92908943 -43 41 C-43 40.67 -43 40.34 -43 40 C-38.71 40 -34.42 40 -30 40 C-29.34 38.35 -28.68 36.7 -28 35 C-27.04542117 33.36839651 -26.04494699 31.76275759 -25 30.1875 C-24.484375 29.39730469 -23.96875 28.60710937 -23.4375 27.79296875 C-22.963125 27.20128906 -22.48875 26.60960937 -22 26 C-21.34 26 -20.68 26 -20 26 C-16.7 32.27 -13.4 38.54 -10 45 C-8.09444214 43.09444214 -8.22847013 39.72955734 -7.8125 37.125 C-5.7289859 24.64473667 -2.80947923 12.33253693 0 0 Z " fill="#E3E3E3" transform="translate(397,391)"/>
<path d="M0 0 C0.33 0 0.66 0 1 0 C0.99886084 0.98026488 0.99886084 0.98026488 0.99769866 1.98033309 C0.95291665 40.735517 0.9186138 79.49069755 0.89786934 118.24590211 C0.89536801 122.90205327 0.89277936 127.55820438 0.89013672 132.21435547 C0.88934979 133.60475567 0.88934979 133.60475567 0.88854696 135.02324477 C0.87985066 150.02072079 0.86408496 165.01818143 0.84569441 180.01564834 C0.82697378 195.41099427 0.8158787 210.80633216 0.81182301 226.201689 C0.80908244 235.69703979 0.8004348 245.19234711 0.78416707 254.68768451 C0.77357349 261.20405732 0.77040474 267.72040775 0.77299725 274.23678854 C0.77427484 277.99314921 0.7723531 281.74943407 0.76158905 285.50578117 C0.74997924 289.58729751 0.75404298 293.66865391 0.75949097 297.75018311 C0.75075244 299.51287934 0.75075244 299.51287934 0.74183738 301.3111856 C0.77651474 310.95328248 1.17721714 320.45052129 6 329 C6 329.99 6 330.98 6 332 C2.7 332.66 -0.6 333.32 -4 334 C-4 333.34 -4 332.68 -4 332 C-4.99 332 -5.98 332 -7 332 C-8.60546875 329.91796875 -8.60546875 329.91796875 -10.1875 327.1875 C-10.98220703 325.84751953 -10.98220703 325.84751953 -11.79296875 324.48046875 C-13 322 -13 322 -13 319 C-8.71 319 -4.42 319 0 319 C-0.16251975 318.05654693 -0.3250395 317.11309385 -0.49248409 316.14105129 C-1.17248145 311.34330983 -1.13517281 306.58082726 -1.12025452 301.74317932 C-1.12110894 300.72447736 -1.12196337 299.7057754 -1.12284368 298.65620369 C-1.12448774 295.25068353 -1.11899469 291.84521287 -1.11352539 288.43969727 C-1.11324326 285.99534608 -1.11340176 283.55099481 -1.1139679 281.10664368 C-1.11419544 275.84819118 -1.11136327 270.58974983 -1.10573006 265.33130074 C-1.09759077 257.72853773 -1.09499735 250.12578071 -1.09374207 242.52301382 C-1.09155536 230.18697 -1.08490562 217.8509328 -1.07543945 205.51489258 C-1.06625546 193.53409864 -1.05917946 181.55330651 -1.05493164 169.57250977 C-1.05466892 168.83357393 -1.05440619 168.09463809 -1.05413551 167.33331025 C-1.05283044 163.62615504 -1.05156674 159.9189998 -1.05032361 156.21184456 C-1.03996288 125.47455822 -1.02228042 94.73728012 -1 64 C-5.62 64 -10.24 64 -15 64 C-15.33 54.76 -15.66 45.52 -16 36 C-11.05 36 -6.1 36 -1 36 C-1.01740234 32.73029297 -1.01740234 32.73029297 -1.03515625 29.39453125 C-1.04296488 27.27303208 -1.04903136 25.15153453 -1.05493164 23.0300293 C-1.05994669 21.56062091 -1.06676033 20.09121748 -1.07543945 18.62182617 C-1.08762928 16.50438205 -1.09325669 14.38700417 -1.09765625 12.26953125 C-1.10551147 10.36071167 -1.10551147 10.36071167 -1.11352539 8.41333008 C-1.01539606 5.4629081 -0.69063835 2.86053325 0 0 Z " fill="#A2A2A2" transform="translate(292,303)"/>
<path d="M0 0 C1.98 0 3.96 0 6 0 C6.0270817 2.72923388 6.04687847 5.45819637 6.0625 8.1875 C6.07087891 8.95642578 6.07925781 9.72535156 6.08789062 10.51757812 C6.09272461 11.64389648 6.09272461 11.64389648 6.09765625 12.79296875 C6.10551147 13.82200317 6.10551147 13.82200317 6.11352539 14.87182617 C6 17 6 17 5.51367188 19.30859375 C4.87636842 22.64777308 4.78147992 25.87148293 4.68359375 29.26953125 C4.66281265 29.95053391 4.64203156 30.63153656 4.62062073 31.33317566 C4.55562122 33.49285508 4.49647288 35.65264846 4.4375 37.8125 C4.3942675 39.28321456 4.35065175 40.75391791 4.30664062 42.22460938 C4.19927506 45.81629155 4.09983486 49.40806912 4 53 C-0.95 53 -5.9 53 -11 53 C-11 51.02 -11 49.04 -11 47 C-11.66 47 -12.32 47 -13 47 C-13 31.82 -13 16.64 -13 1 C-11.35 1 -9.7 1 -8 1 C-6.807629 10.72851066 -6.88485699 20.40682617 -6.9375 30.1875 C-6.94252706 31.82356633 -6.94708783 33.45963417 -6.95117188 35.09570312 C-6.96207723 39.06383986 -6.9792747 43.03190291 -7 47 C-4.69 47 -2.38 47 0 47 C0 31.49 0 15.98 0 0 Z " fill="#676767" transform="translate(287,286)"/>
<path d="M0 0 C4.62 0 9.24 0 14 0 C14 13.53 14 27.06 14 41 C9.38 41 4.76 41 0 41 C0 27.47 0 13.94 0 0 Z " fill="#909090" transform="translate(277,367)"/>
<path d="M0 0 C0.495 2.475 0.495 2.475 1 5 C0.50371094 5.37769531 0.00742187 5.75539063 -0.50390625 6.14453125 C-8.07052678 12.27536041 -13.17323105 19.65519585 -16 29 C-16.33 29 -16.66 29 -17 29 C-17 24.05 -17 19.1 -17 14 C-18.98 14 -20.96 14 -23 14 C-23 29.51 -23 45.02 -23 61 C-25.31 61 -27.62 61 -30 61 C-30.33 45.82 -30.66 30.64 -31 15 C-32.65 15 -34.3 15 -36 15 C-36 14.67 -36 14.34 -36 14 C-34.02 14 -32.04 14 -30 14 C-29.67 16.31 -29.34 18.62 -29 21 C-28.39865234 20.05640625 -28.39865234 20.05640625 -27.78515625 19.09375 C-22.48566649 11.1144729 -11.35943497 -4.25978811 0 0 Z " fill="#808080" transform="translate(310,272)"/>
<path d="M0 0 C2.31 0 4.62 0 7 0 C7 20.79 7 41.58 7 63 C4.69 63 2.38 63 0 63 C0 42.21 0 21.42 0 0 Z " fill="#717171" transform="translate(503,177)"/>
<path d="M0 0 C2.31 0 4.62 0 7 0 C7 20.79 7 41.58 7 63 C4.69 63 2.38 63 0 63 C0 42.21 0 21.42 0 0 Z " fill="#717171" transform="translate(459,177)"/>
<path d="M0 0 C2.31 0 4.62 0 7 0 C7 20.79 7 41.58 7 63 C4.69 63 2.38 63 0 63 C0 42.21 0 21.42 0 0 Z " fill="#717171" transform="translate(437,177)"/>
<path d="M0 0 C2.31 0 4.62 0 7 0 C7 20.79 7 41.58 7 63 C4.69 63 2.38 63 0 63 C0 42.21 0 21.42 0 0 Z " fill="#727272" transform="translate(415,177)"/>
<path d="M0 0 C2.31 0 4.62 0 7 0 C7 20.79 7 41.58 7 63 C4.69 63 2.38 63 0 63 C0 42.21 0 21.42 0 0 Z " fill="#727272" transform="translate(393,177)"/>
<path d="M0 0 C2.31 0 4.62 0 7 0 C7 20.79 7 41.58 7 63 C4.69 63 2.38 63 0 63 C0 42.21 0 21.42 0 0 Z " fill="#727272" transform="translate(375,177)"/>
<path d="M0 0 C2.31 0 4.62 0 7 0 C7 20.79 7 41.58 7 63 C4.69 63 2.38 63 0 63 C0 42.21 0 21.42 0 0 Z " fill="#727272" transform="translate(357,177)"/>
<path d="M0 0 C2.31 0 4.62 0 7 0 C7.02312737 8.06652174 7.04091709 16.13302972 7.05181217 24.19957638 C7.05704014 27.94483037 7.06413622 31.69006176 7.07543945 35.43530273 C7.08627141 39.04681687 7.09227749 42.65830921 7.09487724 46.26983833 C7.09673094 47.65060329 7.10035049 49.031367 7.10573006 50.41212273 C7.11294447 52.33975952 7.11340809 54.26741807 7.11352539 56.19506836 C7.115746 57.29427109 7.11796661 58.39347382 7.12025452 59.52598572 C7 62 7 62 6 63 C4.02 63 2.04 63 0 63 C0 42.21 0 21.42 0 0 Z " fill="#727272" transform="translate(540,177)"/>
<path d="M0 0 C2.31 0 4.62 0 7 0 C7 20.46 7 40.92 7 62 C4.69 62 2.38 62 0 62 C0 41.54 0 21.08 0 0 Z " fill="#727272" transform="translate(522,178)"/>
<path d="M0 0 C17.49 0 34.98 0 53 0 C53 2.64 53 5.28 53 8 C35.51 8 18.02 8 0 8 C0 5.36 0 2.72 0 0 Z " fill="#E5E5E5" transform="translate(156,497)"/>
<path d="M0 0 C4.62 0 9.24 0 14 0 C14 7.59 14 15.18 14 23 C9.38 23 4.76 23 0 23 C0 15.41 0 7.82 0 0 Z " fill="#808080" transform="translate(277,497)"/>
<path d="M0 0 C1.98 0 3.96 0 6 0 C6.02527002 6.53278786 6.04283292 13.06556321 6.05493164 19.59838867 C6.05997317 21.82267732 6.06680623 24.04696263 6.07543945 26.27124023 C6.08751298 29.46078309 6.09322996 32.65028229 6.09765625 35.83984375 C6.10281754 36.84087631 6.10797882 37.84190887 6.11329651 38.87327576 C6.11337204 39.79415482 6.11344757 40.71503387 6.11352539 41.66381836 C6.115746 42.47878281 6.11796661 43.29374725 6.12025452 44.13340759 C6 46 6 46 5 47 C3.35 47 1.7 47 0 47 C0 31.49 0 15.98 0 0 Z " fill="#747474" transform="translate(209,286)"/>
<path d="M0 0 C4.62 0 9.24 0 14 0 C14 5.61 14 11.22 14 17 C9.38 17 4.76 17 0 17 C0 11.39 0 5.78 0 0 Z " fill="#5E5E5E" transform="translate(277,480)"/>
<path d="M0 0 C1.65 0 3.3 0 5 0 C5 15.18 5 30.36 5 46 C3.35 46 1.7 46 0 46 C0 30.82 0 15.64 0 0 Z " fill="#727272" transform="translate(258,287)"/>
<path d="M0 0 C1.65 0 3.3 0 5 0 C5 15.18 5 30.36 5 46 C3.35 46 1.7 46 0 46 C0 30.82 0 15.64 0 0 Z " fill="#707070" transform="translate(242,287)"/>
<path d="M0 0 C1.65 0 3.3 0 5 0 C5 15.18 5 30.36 5 46 C3.35 46 1.7 46 0 46 C0 30.82 0 15.64 0 0 Z " fill="#727272" transform="translate(180,287)"/>
<path d="M0 0 C1.65 0 3.3 0 5 0 C5 14.85 5 29.7 5 45 C2.525 45.495 2.525 45.495 0 46 C0 30.82 0 15.64 0 0 Z " fill="#727272" transform="translate(226,287)"/>
<path d="M0 0 C1.65 0 3.3 0 5 0 C5 15.18 5 30.36 5 46 C3.35 45.67 1.7 45.34 0 45 C0 30.15 0 15.3 0 0 Z " fill="#727272" transform="translate(167,287)"/>
<path d="M0 0 C1.32 0 2.64 0 4 0 C4 15.18 4 30.36 4 46 C2.68 46 1.36 46 0 46 C0 30.82 0 15.64 0 0 Z " fill="#717171" transform="translate(194,287)"/>
<path d="M0 0 C0.66 0 1.32 0 2 0 C3.93265709 8.32622708 5.49451662 16.45907394 6 25 C5.34 25 4.68 25 4 25 C4 26.98 4 28.96 4 31 C3.67 31 3.34 31 3 31 C2.67 26.38 2.34 21.76 2 17 C1.34 17 0.68 17 0 17 C0.061875 18.485 0.061875 18.485 0.125 20 C0.1423348 24.23835866 -0.85808838 27.93193985 -2 32 C-2.66 31.01 -3.32 30.02 -4 29 C-4.99 31.475 -4.99 31.475 -6 34 C-7.21921501 30.47102106 -6.76502962 28.14296132 -5.8203125 24.5703125 C-5.55089844 23.52746094 -5.28148437 22.48460937 -5.00390625 21.41015625 C-4.71386719 20.32605469 -4.42382812 19.24195313 -4.125 18.125 C-3.56302626 15.98231474 -3.00306729 13.83909985 -2.4453125 11.6953125 C-2.19281738 10.74672363 -1.94032227 9.79813477 -1.68017578 8.82080078 C-0.9746144 5.89472173 -0.46072983 2.97360196 0 0 Z " fill="#DEDEDE" transform="translate(397,391)"/>
<path d="M0 0 C1.32 0 2.64 0 4 0 C4.19569589 2.56211075 4.38180612 5.12432391 4.5625 7.6875 C4.61857422 8.40873047 4.67464844 9.12996094 4.73242188 9.87304688 C5.00368258 13.83345321 4.77991067 17.14088647 4 21 C3.85843072 22.91042776 3.75525298 24.82395604 3.68359375 26.73828125 C3.64169922 27.80498047 3.59980469 28.87167969 3.55664062 29.97070312 C3.49766602 31.62489258 3.49766602 31.62489258 3.4375 33.3125 C3.39431641 34.43462891 3.35113281 35.55675781 3.30664062 36.71289062 C3.20085213 39.47514569 3.09876328 42.2374863 3 45 C1.515 45.495 1.515 45.495 0 46 C0 30.82 0 15.64 0 0 Z " fill="#5E5E5E" transform="translate(288,287)"/>
<path d="M0 0 C1.65 0 3.3 0 5 0 C5.33 3.96 5.66 7.92 6 12 C5.34 12 4.68 12 4 12 C3.34 23.22 2.68 34.44 2 46 C1.34 46 0.68 46 0 46 C0 30.82 0 15.64 0 0 Z " fill="#717171" transform="translate(274,287)"/>
<path d="M0 0 C34.32 0 68.64 0 104 0 C103.67 0.66 103.34 1.32 103 2 C99.1479598 3.15456113 95.77983594 2.94836745 91.81030273 2.56640625 C84.01837406 1.93564584 76.2875585 1.88385384 68.47364998 1.92483521 C65.97122986 1.93783201 63.46886394 1.94417147 60.96641541 1.94897461 C55.66508548 1.96027695 50.36380149 1.97955116 45.0625 2 C38.88734188 2.02369913 32.71220894 2.04402444 26.53701591 2.05593872 C24.08258968 2.0623756 21.62824359 2.07487357 19.17384338 2.08764648 C17.66285266 2.09128032 16.15186121 2.09463189 14.64086914 2.09765625 C12.67568077 2.10551147 12.67568077 2.10551147 10.67079163 2.11352539 C7.01032362 2.00031928 3.60770813 1.58953396 0 1 C0 0.67 0 0.34 0 0 Z " fill="#B2B2B2" transform="translate(411,153)"/>
<path d="M0 0 C0.33 0 0.66 0 1 0 C1.33 2.97 1.66 5.94 2 9 C37.97 9.33 73.94 9.66 111 10 C111 10.33 111 10.66 111 11 C96.54467189 11.02333012 82.08934669 11.04091332 67.63400364 11.05181217 C60.92258132 11.05697489 54.21117068 11.06401713 47.49975586 11.07543945 C41.02886264 11.08626565 34.55798158 11.09227626 28.08708 11.09487724 C25.61221055 11.09673198 23.1373418 11.1003535 20.66247749 11.10573006 C17.20929627 11.11293693 13.75616599 11.11399109 10.30297852 11.11352539 C9.26864182 11.11712067 8.23430511 11.12071594 7.16862488 11.12442017 C6.23327911 11.1230455 5.29793335 11.12167084 4.33424377 11.12025452 C3.5166134 11.12117631 2.69898302 11.1220981 1.85657597 11.12304783 C0 11 0 11 -1 10 C-1.13568319 6.33655389 -1.16461426 3.49384279 0 0 Z " fill="#B7B7B7" transform="translate(165,329)"/>
<path d="M0 0 C0.33 0 0.66 0 1 0 C2.19388403 23.78877436 2.19388403 23.78877436 2 34 C1.01 33.34 0.02 32.68 -1 32 C-1.35644531 28.94311523 -1.35644531 28.94311523 -1.328125 25.05859375 C-1.32625183 24.37571793 -1.32437866 23.6928421 -1.32244873 22.98927307 C-1.31572543 21.54594032 -1.30180523 20.10262587 -1.28125 18.65942383 C-1.25007314 16.44270015 -1.24027826 14.22668687 -1.234375 12.00976562 C-1.16335931 1.16335931 -1.16335931 1.16335931 0 0 Z " fill="#C3C3C3" transform="translate(121,423)"/>
<path d="M0 0 C0.33 0.66 0.66 1.32 1 2 C0.27975005 3.64628559 -0.44214881 5.2918664 -1.17163086 6.93408203 C-5.09654273 16.72264798 -4.43543089 27.76188881 -4.625 38.125 C-4.66325414 39.86199716 -4.70230997 41.59897685 -4.7421875 43.3359375 C-4.83737259 47.55714705 -4.92169337 51.778445 -5 56 C-5.33 56 -5.66 56 -6 56 C-6.07455252 49.89854559 -6.12879183 43.79736054 -6.16479492 37.69555664 C-6.17981521 35.62291846 -6.20023747 33.55031171 -6.22631836 31.4777832 C-6.26300024 28.48641164 -6.27979435 25.4954629 -6.29296875 22.50390625 C-6.30845261 21.58791153 -6.32393646 20.67191681 -6.33988953 19.72816467 C-6.34145867 13.63259241 -5.28252065 8.65187117 -3 3 C-2.34 3 -1.68 3 -1 3 C-0.67 2.01 -0.34 1.02 0 0 Z " fill="#D7D7D7" transform="translate(163,272)"/>
<path d="M0 0 C0 0.33 0 0.66 0 1 C-1.27875 1.12375 -2.5575 1.2475 -3.875 1.375 C-10.62427597 2.81056029 -14.6796278 7.9252771 -19 13 C-19.33 13.66 -19.66 14.32 -20 15 C-20.66 15 -21.32 15 -22 15 C-20.63312778 11.01328937 -18.84804907 8.11505367 -16 5 C-15.34 5 -14.68 5 -14 5 C-14 4.34 -14 3.68 -14 3 C-9.03006806 0.56574762 -5.65394631 -0.34615998 0 0 Z " fill="#B3B3B3" transform="translate(368,153)"/>
<path d="M0 0 C2.64465038 3.1254959 3.84414715 6.08788267 5 10 C8.96 10 12.92 10 17 10 C17 10.33 17 10.66 17 11 C12.05 11.33 7.1 11.66 2 12 C1.01 9.36 0.02 6.72 -1 4 C-1.66 4 -2.32 4 -3 4 C-3 3.34 -3 2.68 -3 2 C-2.01 2 -1.02 2 0 2 C0 1.34 0 0.68 0 0 Z " fill="#D9D9D9" transform="translate(420,420)"/>
<path d="M0 0 C0.33 0.99 0.66 1.98 1 3 C0.01 3.66 -0.98 4.32 -2 5 C-1.34 7.97 -0.68 10.94 0 14 C-1.32 14.99 -2.64 15.98 -4 17 C-4.02701408 14.89590361 -4.04640223 12.79170822 -4.0625 10.6875 C-4.07410156 9.51574219 -4.08570312 8.34398437 -4.09765625 7.13671875 C-4 4 -4 4 -3 1 C-2.01 0.67 -1.02 0.34 0 0 Z " fill="#B8B8B8" transform="translate(124,516)"/>
<path d="M0 0 C0.33 0.66 0.66 1.32 1 2 C0.29071627 3.62121994 -0.42336463 5.24054574 -1.1640625 6.84765625 C-2.68173994 10.75532107 -3.29552857 14.8809141 -4 19 C-6.31323995 15.53014008 -6.03975162 14.01711296 -5.42578125 10.0078125 C-4.89999623 7.52842261 -4.07459989 5.29247976 -3 3 C-2.34 3 -1.68 3 -1 3 C-0.67 2.01 -0.34 1.02 0 0 Z " fill="#BFBFBF" transform="translate(163,272)"/>
<path d="M0 0 C0.99 0 1.98 0 3 0 C3 3.96 3 7.92 3 12 C2.01 11.34 1.02 10.68 0 10 C-0.29296875 7.6171875 -0.29296875 7.6171875 -0.1875 4.875 C-0.16042969 3.96492188 -0.13335937 3.05484375 -0.10546875 2.1171875 C-0.07066406 1.41851562 -0.03585938 0.71984375 0 0 Z " fill="#BCBCBC" transform="translate(120,445)"/>
<path d="M0 0 C1.45606519 4.52092968 0.27032841 7.51648796 -1 12 C-1.66 11.01 -2.32 10.02 -3 9 C-3.66 10.65 -4.32 12.3 -5 14 C-6.45606519 9.47907032 -5.27032841 6.48351204 -4 2 C-3.67 2 -3.34 2 -3 2 C-3 3.65 -3 5.3 -3 7 C-2.34 7 -1.68 7 -1 7 C-0.67 4.69 -0.34 2.38 0 0 Z " fill="#CFCFCF" transform="translate(396,411)"/>
<path d="M0 0 C0.66 0 1.32 0 2 0 C2.33 3.63 2.66 7.26 3 11 C2.01 11 1.02 11 0 11 C0 7.37 0 3.74 0 0 Z " fill="#D7D7D7" transform="translate(119,409)"/>
<path d="M0 0 C0.33 0 0.66 0 1 0 C1.36923077 6.52307692 1.36923077 6.52307692 -0.5 8.9375 C-0.995 9.288125 -1.49 9.63875 -2 10 C-2.6875 8.375 -2.6875 8.375 -3 6 C-1.5625 2.75 -1.5625 2.75 0 0 Z " fill="#E9E9E9" transform="translate(393,419)"/>
<path d="M0 0 C0.66 0 1.32 0 2 0 C2.33 2.64 2.66 5.28 3 8 C2.01 7.67 1.02 7.34 0 7 C0 4.69 0 2.38 0 0 Z " fill="#BFBFBF" transform="translate(121,510)"/>
<path d="M0 0 C0.33 0.99 0.66 1.98 1 3 C0.01 3.66 -0.98 4.32 -2 5 C-2.72382467 7.05925139 -2.72382467 7.05925139 -3 9 C-3.79953138 5.71303767 -4.09658936 4.28976808 -3 1 C-2.01 0.67 -1.02 0.34 0 0 Z " fill="#6F6F6F" transform="translate(124,516)"/>
<path d="M0 0 C0.33 0 0.66 0 1 0 C0.67 2.97 0.34 5.94 0 9 C-0.66 9 -1.32 9 -2 9 C-1.125 1.125 -1.125 1.125 0 0 Z " fill="#EBEBEB" transform="translate(395,409)"/>
<path d="M0 0 C0.33 0 0.66 0 1 0 C1.33 2.97 1.66 5.94 2 9 C1.01 9.33 0.02 9.66 -1 10 C-1.125 3.375 -1.125 3.375 0 0 Z " fill="#AAAAAA" transform="translate(165,329)"/>
</svg>
