<?xml version="1.0" encoding="UTF-8"?>
<svg version="1.1" xmlns="http://www.w3.org/2000/svg" width="125" height="106">
<path d="M0 0 C1.51805933 -0.0165837 3.03603981 -0.04390618 4.55371094 -0.08203125 C6.74268045 -0.13672576 8.92982465 -0.15865589 11.11938477 -0.17333984 C12.43156982 -0.19315918 13.74375488 -0.21297852 15.09570312 -0.23339844 C18.34204102 0.35009766 18.34204102 0.35009766 20.27514648 2.49682617 C21.47881798 5.71588996 21.68573041 8.09378173 21.63500977 11.52587891 C21.6253418 12.6828125 21.61567383 13.83974609 21.60571289 15.03173828 C21.58057617 16.22992188 21.55543945 17.42810547 21.52954102 18.66259766 C21.50923828 20.48887695 21.50923828 20.48887695 21.48852539 22.35205078 C21.45323362 25.35185111 21.40392582 28.3507474 21.34204102 31.35009766 C22.07841797 31.33962402 22.81479492 31.32915039 23.57348633 31.31835938 C26.91296978 31.27676064 30.25239867 31.25075901 33.59204102 31.22509766 C35.3303418 31.19996094 35.3303418 31.19996094 37.10375977 31.17431641 C38.21879883 31.16787109 39.33383789 31.16142578 40.48266602 31.15478516 C42.02229004 31.13907471 42.02229004 31.13907471 43.59301758 31.12304688 C46.41071287 31.35576949 48.02618615 31.74553154 50.34204102 33.35009766 C52.0032282 38.33365921 51.52797453 43.52838625 51.52734375 48.74682617 C51.5295295 50.7769062 51.54769698 52.80644189 51.56665039 54.83642578 C51.56858398 56.11839844 51.57051758 57.40037109 51.57250977 58.72119141 C51.57661865 59.89609131 51.58072754 61.07099121 51.58496094 62.28149414 C51.34204102 65.35009766 51.34204102 65.35009766 49.34204102 69.35009766 C39.44204102 69.35009766 29.54204102 69.35009766 19.34204102 69.35009766 C19.06469092 72.53499772 19.06469092 72.53499772 21.34204102 75.35009766 C21.77583801 79.00247555 21.66626093 82.67473244 21.65454102 86.35009766 C21.6706543 87.36072266 21.68676758 88.37134766 21.70336914 89.41259766 C21.70401367 90.38197266 21.7046582 91.35134766 21.70532227 92.35009766 C21.70830322 93.23697266 21.71128418 94.12384766 21.71435547 95.03759766 C21.34204102 97.35009766 21.34204102 97.35009766 20.28222656 99.13549805 C17.32016147 100.98981714 14.32518846 100.79796817 10.93579102 100.78369141 C10.2146814 100.78893326 9.49357178 100.79417511 8.75061035 100.79957581 C7.22755215 100.80599295 5.70444437 100.8046629 4.18139648 100.79614258 C1.8499342 100.78762649 -0.47908223 100.81640214 -2.81030273 100.84814453 C-4.29077075 100.84975652 -5.77124311 100.84917905 -7.25170898 100.84619141 C-7.94864868 100.85742538 -8.64558838 100.86865936 -9.36364746 100.88023376 C-12.430873 100.83601958 -14.22510578 100.71762889 -16.60253906 98.69897461 C-17.93780394 95.72729213 -17.99881426 93.52825625 -17.95092773 90.27197266 C-17.93642578 88.53173828 -17.93642578 88.53173828 -17.92163086 86.75634766 C-17.89649414 85.54978516 -17.87135742 84.34322266 -17.84545898 83.10009766 C-17.83192383 81.87806641 -17.81838867 80.65603516 -17.80444336 79.39697266 C-17.76909879 76.38090268 -17.71975458 73.36572278 -17.65795898 70.35009766 C-18.44299805 70.35654297 -19.22803711 70.36298828 -20.03686523 70.36962891 C-24.95119942 70.33300943 -28.32056271 68.60554372 -32.65795898 66.35009766 C-33.73045898 65.83447266 -34.80295898 65.31884766 -35.90795898 64.78759766 C-38.65795898 63.35009766 -38.65795898 63.35009766 -40.65795898 61.35009766 C-41.35920898 60.87572266 -42.06045898 60.40134766 -42.78295898 59.91259766 C-43.40170898 59.39697266 -44.02045898 58.88134766 -44.65795898 58.35009766 C-44.65795898 57.36009766 -44.65795898 56.37009766 -44.65795898 55.35009766 C-45.64795898 55.02009766 -46.63795898 54.69009766 -47.65795898 54.35009766 C-49.44945011 51.76238825 -49.72856227 49.82939844 -50.15795898 46.66259766 C-50.32295898 45.56947266 -50.48795898 44.47634766 -50.65795898 43.35009766 C-51.31795898 43.02009766 -51.97795898 42.69009766 -52.65795898 42.35009766 C-52.65795898 34.35009766 -52.65795898 34.35009766 -50.65795898 32.35009766 C-46.64454549 32.0666463 -42.61767141 32.11816487 -38.59545898 32.10009766 C-37.47461914 32.07947266 -36.3537793 32.05884766 -35.19897461 32.03759766 C-28.55295061 32.00637734 -23.73395341 32.68087467 -17.65795898 35.35009766 C-16.66795898 35.35009766 -15.67795898 35.35009766 -14.65795898 35.35009766 C-15.3946582 34.27888672 -15.3946582 34.27888672 -16.14624023 33.18603516 C-18.79500735 27.88850092 -17.96718595 21.73684065 -17.84545898 15.97509766 C-17.82515625 14.15558594 -17.82515625 14.15558594 -17.80444336 12.29931641 C-17.76920481 9.31578559 -17.71993424 6.33317307 -17.65795898 3.35009766 C-16.99795898 3.35009766 -16.33795898 3.35009766 -15.65795898 3.35009766 C-15.65795898 2.69009766 -15.65795898 2.03009766 -15.65795898 1.35009766 C-11.14428299 -0.90674034 -5.01912055 0.04023561 0 0 Z M-15.65795898 69.35009766 C-14.85358398 70.15447266 -14.04920898 70.95884766 -13.22045898 71.78759766 C-9.53295898 75.47509766 -9.53295898 75.47509766 -9.34155273 79.60400391 C-9.30344482 80.37301025 -9.26533691 81.1420166 -9.22607422 81.93432617 C-9.18297119 82.91715576 -9.13986816 83.89998535 -9.09545898 84.91259766 C-8.95108398 88.02697266 -8.80670898 91.14134766 -8.65795898 94.35009766 C-1.72795898 94.35009766 5.20204102 94.35009766 12.34204102 94.35009766 C12.63079102 91.46259766 12.91954102 88.57509766 13.21704102 85.60009766 C13.3772876 84.24513184 13.3772876 84.24513184 13.54077148 82.86279297 C13.71726173 80.57404701 13.7749102 78.60896248 13.34204102 76.35009766 C5.60015846 69.28094279 -5.7548549 69.88540058 -15.65795898 69.35009766 Z M-10.65795898 75.35009766 C-10.65795898 81.62009766 -10.65795898 87.89009766 -10.65795898 94.35009766 C-10.32795898 94.35009766 -9.99795898 94.35009766 -9.65795898 94.35009766 C-9.65795898 88.08009766 -9.65795898 81.81009766 -9.65795898 75.35009766 C-9.98795898 75.35009766 -10.31795898 75.35009766 -10.65795898 75.35009766 Z M13.34204102 79.35009766 C13.34204102 84.30009766 13.34204102 89.25009766 13.34204102 94.35009766 C13.67204102 94.35009766 14.00204102 94.35009766 14.34204102 94.35009766 C14.34204102 89.40009766 14.34204102 84.45009766 14.34204102 79.35009766 C14.01204102 79.35009766 13.68204102 79.35009766 13.34204102 79.35009766 Z " fill="#006134" transform="translate(61.657958984375,2.64990234375)"/>
<path d="M0 0 C1.12083984 -0.020625 2.24167969 -0.04125 3.39648438 -0.0625 C10.03435804 -0.09368203 14.88572791 0.52428737 20.9375 3.25 C22.175 3.559375 23.4125 3.86875 24.6875 4.1875 C28.25788919 5.35474262 29.45047681 6.52229715 31.9375 9.25 C33.01 9.95125 34.0825 10.6525 35.1875 11.375 C36.54875 12.303125 36.54875 12.303125 37.9375 13.25 C37.9375 13.91 37.9375 14.57 37.9375 15.25 C38.535625 15.518125 39.13375 15.78625 39.75 16.0625 C43.21698739 17.94457887 45.284661 20.58225247 47.49609375 23.796875 C47.96466797 24.4775 48.43324219 25.158125 48.91601562 25.859375 C49.39748047 26.56578125 49.87894531 27.2721875 50.375 28 C51.09139648 29.03640625 51.09139648 29.03640625 51.82226562 30.09375 C52.76914426 31.47575119 53.70392883 32.86611917 54.6262207 34.26464844 C55.44498746 35.50430795 56.28656732 36.72954089 57.16088867 37.93066406 C60.68807296 43.17787078 60.50110942 48.3328425 60.375 54.5 C60.38208984 55.49257812 60.38917969 56.48515625 60.39648438 57.5078125 C60.33412619 64.58786446 60.33412619 64.58786446 58.87329102 67.02661133 C55.91671352 68.89512058 52.92206064 68.69787647 49.53125 68.68359375 C48.81014038 68.6888356 48.08903076 68.69407745 47.34606934 68.69947815 C45.82301114 68.7058953 44.29990336 68.70456524 42.77685547 68.69604492 C40.44539318 68.68752883 38.11637675 68.71630448 35.78515625 68.74804688 C34.30468823 68.74965887 32.82421588 68.74908139 31.34375 68.74609375 C30.6468103 68.75732773 29.94987061 68.76856171 29.23181152 68.78013611 C26.16458598 68.73592192 24.37035321 68.61753123 21.99291992 66.59887695 C20.65765505 63.62719447 20.59664473 61.42815859 20.64453125 58.171875 C20.6590332 56.43164062 20.6590332 56.43164062 20.67382812 54.65625 C20.69896484 53.4496875 20.72410156 52.243125 20.75 51 C20.76353516 49.77796875 20.77707031 48.5559375 20.79101562 47.296875 C20.8263602 44.28080502 20.8757044 41.26562513 20.9375 38.25 C20.15246094 38.25644531 19.36742187 38.26289062 18.55859375 38.26953125 C13.64425956 38.23291177 10.27489627 36.50544606 5.9375 34.25 C4.865 33.734375 3.7925 33.21875 2.6875 32.6875 C-0.0625 31.25 -0.0625 31.25 -2.0625 29.25 C-2.76375 28.775625 -3.465 28.30125 -4.1875 27.8125 C-4.80625 27.296875 -5.425 26.78125 -6.0625 26.25 C-6.0625 25.26 -6.0625 24.27 -6.0625 23.25 C-7.0525 22.92 -8.0425 22.59 -9.0625 22.25 C-10.85399113 19.66229059 -11.13310328 17.72930079 -11.5625 14.5625 C-11.7275 13.469375 -11.8925 12.37625 -12.0625 11.25 C-12.7225 10.92 -13.3825 10.59 -14.0625 10.25 C-14.0625 -1.39779717 -10.13560323 0.0455277 0 0 Z M22.9375 37.25 C23.741875 38.054375 24.54625 38.85875 25.375 39.6875 C29.0625 43.375 29.0625 43.375 29.25390625 47.50390625 C29.29201416 48.2729126 29.33012207 49.04191895 29.36938477 49.83422852 C29.41248779 50.81705811 29.45559082 51.7998877 29.5 52.8125 C29.644375 55.926875 29.78875 59.04125 29.9375 62.25 C36.8675 62.25 43.7975 62.25 50.9375 62.25 C51.22625 59.3625 51.515 56.475 51.8125 53.5 C51.97274658 52.14503418 51.97274658 52.14503418 52.13623047 50.76269531 C52.31272071 48.47394936 52.37036918 46.50886483 51.9375 44.25 C44.19561745 37.18084513 32.84060408 37.78530292 22.9375 37.25 Z M27.9375 43.25 C27.9375 49.52 27.9375 55.79 27.9375 62.25 C28.2675 62.25 28.5975 62.25 28.9375 62.25 C28.9375 55.98 28.9375 49.71 28.9375 43.25 C28.6075 43.25 28.2775 43.25 27.9375 43.25 Z M51.9375 47.25 C51.9375 52.2 51.9375 57.15 51.9375 62.25 C52.2675 62.25 52.5975 62.25 52.9375 62.25 C52.9375 57.3 52.9375 52.35 52.9375 47.25 C52.6075 47.25 52.2775 47.25 51.9375 47.25 Z " fill="#81BF4A" transform="translate(23.0625,34.75)"/>
<path d="M0 0 C1.15941038 3.47823115 0.70820884 5.45895578 0 9 C-0.66 8.67 -1.32 8.34 -2 8 C-1.125 1.125 -1.125 1.125 0 0 Z " fill="#51AC30" transform="translate(11,35)"/>
<path d="M0 0 C1.98 0 3.96 0 6 0 C6 0.33 6 0.66 6 1 C4.02 1 2.04 1 0 1 C0 0.67 0 0.34 0 0 Z " fill="#00AA00" transform="translate(27,34)"/>
<path d="" fill="#000000" transform="translate(0,0)"/>
<path d="" fill="#000000" transform="translate(0,0)"/>
<path d="" fill="#000000" transform="translate(0,0)"/>
<path d="" fill="#00FF00" transform="translate(0,0)"/>
<path d="" fill="#000000" transform="translate(0,0)"/>
<path d="" fill="#000000" transform="translate(0,0)"/>
<path d="" fill="#000000" transform="translate(0,0)"/>
</svg>
